<svg xmlns="http://www.w3.org/2000/svg" viewBox="0 0 1600 746" width="1600" height="746">
  <path fill="#312c26" fill-rule="evenodd" d="M 280 219 L 288 219 L 288 220 L 296 220 L 296 221 L 300 221 L 300 222 L 303 222 L 303 223 L 306 223 L 306 224 L 308 224 L 308 225 L 311 225 L 311 226 L 312 226 L 312 227 L 314 227 L 314 228 L 316 228 L 316 229 L 318 229 L 318 230 L 319 230 L 319 231 L 321 231 L 321 232 L 322 232 L 322 233 L 324 233 L 324 234 L 325 234 L 325 235 L 326 235 L 326 236 L 327 236 L 327 237 L 328 237 L 328 238 L 329 238 L 329 239 L 330 239 L 330 240 L 331 240 L 331 241 L 332 241 L 332 242 L 333 242 L 333 243 L 334 243 L 334 244 L 335 244 L 335 245 L 336 245 L 336 247 L 337 247 L 337 248 L 338 248 L 338 250 L 339 250 L 339 251 L 340 251 L 340 253 L 341 253 L 341 255 L 342 255 L 342 257 L 343 257 L 343 259 L 344 259 L 344 261 L 345 261 L 345 263 L 346 263 L 346 266 L 347 266 L 347 270 L 348 270 L 348 273 L 349 273 L 349 278 L 350 278 L 350 283 L 351 283 L 351 292 L 352 292 L 352 309 L 351 309 L 351 319 L 350 319 L 350 325 L 349 325 L 349 331 L 348 331 L 348 335 L 347 335 L 347 339 L 346 339 L 346 343 L 345 343 L 345 346 L 344 346 L 344 349 L 343 349 L 343 352 L 342 352 L 342 355 L 341 355 L 341 358 L 340 358 L 340 360 L 339 360 L 339 362 L 338 362 L 338 365 L 337 365 L 337 367 L 336 367 L 336 370 L 335 370 L 335 372 L 334 372 L 334 374 L 333 374 L 333 376 L 332 376 L 332 378 L 331 378 L 331 380 L 330 380 L 330 381 L 329 381 L 329 383 L 328 383 L 328 385 L 327 385 L 327 387 L 326 387 L 326 389 L 325 389 L 325 390 L 324 390 L 324 392 L 323 392 L 323 394 L 322 394 L 322 396 L 323 396 L 323 398 L 324 398 L 324 399 L 325 399 L 325 400 L 326 400 L 326 401 L 327 401 L 327 402 L 328 402 L 328 403 L 329 403 L 329 404 L 330 404 L 330 405 L 331 405 L 331 407 L 332 407 L 332 408 L 333 408 L 333 409 L 334 409 L 334 410 L 335 410 L 335 411 L 336 411 L 336 412 L 337 412 L 337 413 L 338 413 L 338 415 L 339 415 L 339 416 L 340 416 L 340 417 L 341 417 L 341 418 L 342 418 L 342 419 L 343 419 L 343 420 L 344 420 L 344 422 L 345 422 L 345 423 L 346 423 L 346 424 L 347 424 L 347 425 L 348 425 L 348 426 L 349 426 L 349 428 L 350 428 L 350 429 L 351 429 L 351 430 L 352 430 L 352 431 L 353 431 L 353 432 L 354 432 L 354 433 L 355 433 L 355 435 L 356 435 L 356 436 L 357 436 L 357 437 L 358 437 L 358 438 L 359 438 L 359 439 L 360 439 L 360 441 L 361 441 L 361 442 L 362 442 L 362 443 L 363 443 L 363 444 L 364 444 L 364 445 L 365 445 L 365 446 L 366 446 L 366 447 L 367 447 L 367 449 L 368 449 L 368 450 L 369 450 L 369 451 L 370 451 L 370 452 L 371 452 L 371 453 L 372 453 L 372 454 L 373 454 L 373 455 L 374 455 L 374 457 L 375 457 L 375 458 L 376 458 L 376 459 L 377 459 L 377 460 L 378 460 L 378 461 L 379 461 L 379 462 L 380 462 L 380 463 L 381 463 L 381 464 L 382 464 L 382 465 L 383 465 L 383 466 L 384 466 L 384 467 L 385 467 L 385 468 L 386 468 L 386 469 L 387 469 L 387 470 L 388 470 L 388 471 L 390 471 L 390 470 L 391 470 L 391 469 L 392 469 L 392 468 L 393 468 L 393 466 L 394 466 L 394 465 L 395 465 L 395 464 L 396 464 L 396 462 L 397 462 L 397 461 L 398 461 L 398 460 L 399 460 L 399 458 L 400 458 L 400 457 L 401 457 L 401 455 L 402 455 L 402 454 L 403 454 L 403 452 L 404 452 L 404 450 L 405 450 L 405 449 L 406 449 L 406 447 L 407 447 L 407 446 L 408 446 L 408 444 L 409 444 L 409 442 L 410 442 L 410 440 L 411 440 L 411 439 L 412 439 L 412 437 L 413 437 L 413 435 L 414 435 L 414 433 L 415 433 L 415 431 L 416 431 L 416 429 L 417 429 L 417 427 L 418 427 L 418 425 L 419 425 L 419 423 L 420 423 L 420 421 L 421 421 L 421 419 L 422 419 L 422 417 L 423 417 L 423 415 L 424 415 L 424 412 L 425 412 L 425 410 L 426 410 L 426 408 L 427 408 L 427 405 L 428 405 L 428 403 L 429 403 L 429 401 L 430 401 L 430 398 L 431 398 L 431 396 L 432 396 L 432 393 L 433 393 L 433 390 L 434 390 L 434 387 L 435 387 L 435 384 L 436 384 L 436 382 L 437 382 L 437 379 L 438 379 L 438 376 L 439 376 L 439 373 L 440 373 L 440 370 L 441 370 L 441 366 L 442 366 L 442 363 L 443 363 L 443 359 L 444 359 L 444 355 L 445 355 L 445 351 L 446 351 L 446 347 L 447 347 L 447 343 L 448 343 L 448 339 L 449 339 L 449 335 L 450 335 L 450 330 L 451 330 L 451 325 L 452 325 L 452 320 L 453 320 L 453 314 L 454 314 L 454 308 L 455 308 L 455 300 L 456 300 L 456 293 L 457 293 L 457 285 L 458 285 L 458 275 L 459 275 L 459 261 L 460 261 L 460 245 L 461 245 L 461 241 L 462 241 L 462 238 L 463 238 L 463 237 L 464 237 L 464 235 L 465 235 L 465 234 L 466 234 L 466 233 L 467 233 L 467 232 L 468 232 L 468 231 L 469 231 L 469 230 L 470 230 L 470 229 L 472 229 L 472 228 L 474 228 L 474 227 L 476 227 L 476 226 L 482 226 L 482 225 L 485 225 L 485 226 L 491 226 L 491 227 L 493 227 L 493 228 L 495 228 L 495 229 L 497 229 L 497 230 L 498 230 L 498 231 L 500 231 L 500 232 L 501 232 L 501 234 L 502 234 L 502 235 L 503 235 L 503 236 L 504 236 L 504 238 L 505 238 L 505 240 L 506 240 L 506 243 L 507 243 L 507 266 L 506 266 L 506 280 L 505 280 L 505 290 L 504 290 L 504 299 L 503 299 L 503 306 L 502 306 L 502 313 L 501 313 L 501 319 L 500 319 L 500 325 L 499 325 L 499 330 L 498 330 L 498 336 L 497 336 L 497 340 L 496 340 L 496 346 L 495 346 L 495 350 L 494 350 L 494 354 L 493 354 L 493 358 L 492 358 L 492 362 L 491 362 L 491 365 L 492 365 L 492 366 L 494 366 L 494 367 L 496 367 L 496 368 L 497 368 L 497 369 L 499 369 L 499 370 L 501 370 L 501 371 L 503 371 L 503 372 L 505 372 L 505 371 L 506 371 L 506 368 L 507 368 L 507 366 L 508 366 L 508 363 L 509 363 L 509 361 L 510 361 L 510 359 L 511 359 L 511 357 L 512 357 L 512 355 L 513 355 L 513 353 L 514 353 L 514 352 L 515 352 L 515 350 L 516 350 L 516 348 L 517 348 L 517 347 L 518 347 L 518 345 L 519 345 L 519 344 L 520 344 L 520 343 L 521 343 L 521 341 L 522 341 L 522 340 L 523 340 L 523 339 L 524 339 L 524 338 L 525 338 L 525 336 L 526 336 L 526 335 L 527 335 L 527 334 L 528 334 L 528 333 L 529 333 L 529 332 L 530 332 L 530 331 L 531 331 L 531 330 L 532 330 L 532 329 L 534 329 L 534 328 L 535 328 L 535 327 L 536 327 L 536 326 L 537 326 L 537 325 L 539 325 L 539 324 L 540 324 L 540 323 L 542 323 L 542 322 L 543 322 L 543 321 L 545 321 L 545 320 L 546 320 L 546 319 L 548 319 L 548 318 L 550 318 L 550 317 L 552 317 L 552 316 L 554 316 L 554 315 L 556 315 L 556 314 L 559 314 L 559 313 L 562 313 L 562 312 L 565 312 L 565 311 L 569 311 L 569 310 L 574 310 L 574 309 L 580 309 L 580 308 L 605 308 L 605 309 L 611 309 L 611 310 L 616 310 L 616 311 L 620 311 L 620 312 L 623 312 L 623 313 L 626 313 L 626 314 L 629 314 L 629 315 L 632 315 L 632 316 L 634 316 L 634 317 L 636 317 L 636 318 L 638 318 L 638 319 L 640 319 L 640 320 L 642 320 L 642 321 L 644 321 L 644 322 L 645 322 L 645 323 L 647 323 L 647 324 L 648 324 L 648 325 L 650 325 L 650 326 L 651 326 L 651 327 L 653 327 L 653 328 L 654 328 L 654 329 L 655 329 L 655 330 L 656 330 L 656 331 L 657 331 L 657 332 L 658 332 L 658 333 L 659 333 L 659 334 L 660 334 L 660 335 L 661 335 L 661 336 L 662 336 L 662 337 L 663 337 L 663 339 L 664 339 L 664 340 L 665 340 L 665 341 L 666 341 L 666 343 L 667 343 L 667 345 L 668 345 L 668 346 L 669 346 L 669 348 L 670 348 L 670 350 L 671 350 L 671 352 L 672 352 L 672 355 L 673 355 L 673 357 L 674 357 L 674 360 L 675 360 L 675 364 L 676 364 L 676 370 L 677 370 L 677 387 L 676 387 L 676 392 L 675 392 L 675 397 L 674 397 L 674 400 L 673 400 L 673 402 L 672 402 L 672 405 L 671 405 L 671 407 L 670 407 L 670 409 L 669 409 L 669 411 L 668 411 L 668 412 L 667 412 L 667 414 L 666 414 L 666 416 L 665 416 L 665 417 L 664 417 L 664 418 L 663 418 L 663 419 L 662 419 L 662 421 L 661 421 L 661 422 L 660 422 L 660 423 L 659 423 L 659 424 L 658 424 L 658 425 L 657 425 L 657 426 L 656 426 L 656 427 L 655 427 L 655 428 L 653 428 L 653 429 L 652 429 L 652 430 L 651 430 L 651 431 L 649 431 L 649 432 L 648 432 L 648 433 L 646 433 L 646 434 L 644 434 L 644 435 L 643 435 L 643 436 L 641 436 L 641 437 L 639 437 L 639 438 L 637 438 L 637 439 L 634 439 L 634 440 L 632 440 L 632 441 L 628 441 L 628 442 L 625 442 L 625 443 L 620 443 L 620 444 L 615 444 L 615 445 L 608 445 L 608 446 L 579 446 L 579 445 L 571 445 L 571 444 L 565 444 L 565 443 L 560 443 L 560 442 L 555 442 L 555 441 L 551 441 L 551 440 L 548 440 L 548 439 L 545 439 L 545 438 L 542 438 L 542 437 L 539 437 L 539 436 L 538 436 L 538 442 L 539 442 L 539 447 L 540 447 L 540 450 L 541 450 L 541 452 L 542 452 L 542 454 L 543 454 L 543 456 L 544 456 L 544 458 L 545 458 L 545 459 L 546 459 L 546 461 L 547 461 L 547 462 L 548 462 L 548 464 L 549 464 L 549 465 L 550 465 L 550 466 L 551 466 L 551 468 L 552 468 L 552 469 L 553 469 L 553 470 L 554 470 L 554 471 L 555 471 L 555 472 L 556 472 L 556 473 L 557 473 L 557 474 L 558 474 L 558 475 L 559 475 L 559 476 L 560 476 L 560 477 L 561 477 L 561 478 L 562 478 L 562 479 L 564 479 L 564 480 L 565 480 L 565 481 L 567 481 L 567 482 L 568 482 L 568 483 L 570 483 L 570 484 L 572 484 L 572 485 L 575 485 L 575 486 L 578 486 L 578 487 L 581 487 L 581 488 L 586 488 L 586 489 L 607 489 L 607 488 L 612 488 L 612 487 L 616 487 L 616 486 L 620 486 L 620 485 L 623 485 L 623 484 L 625 484 L 625 483 L 628 483 L 628 482 L 630 482 L 630 481 L 632 481 L 632 480 L 633 480 L 633 479 L 635 479 L 635 478 L 637 478 L 637 477 L 638 477 L 638 476 L 640 476 L 640 475 L 641 475 L 641 474 L 643 474 L 643 473 L 644 473 L 644 472 L 645 472 L 645 471 L 647 471 L 647 470 L 648 470 L 648 469 L 649 469 L 649 468 L 650 468 L 650 467 L 651 467 L 651 466 L 652 466 L 652 465 L 653 465 L 653 464 L 654 464 L 654 463 L 655 463 L 655 462 L 656 462 L 656 461 L 657 461 L 657 460 L 658 460 L 658 459 L 659 459 L 659 458 L 660 458 L 660 457 L 661 457 L 661 456 L 662 456 L 662 455 L 663 455 L 663 454 L 664 454 L 664 452 L 665 452 L 665 451 L 666 451 L 666 450 L 667 450 L 667 448 L 668 448 L 668 447 L 669 447 L 669 446 L 670 446 L 670 444 L 671 444 L 671 443 L 672 443 L 672 441 L 673 441 L 673 440 L 674 440 L 674 439 L 675 439 L 675 437 L 676 437 L 676 435 L 677 435 L 677 434 L 678 434 L 678 432 L 679 432 L 679 431 L 680 431 L 680 429 L 681 429 L 681 427 L 682 427 L 682 425 L 683 425 L 683 424 L 684 424 L 684 422 L 685 422 L 685 420 L 686 420 L 686 418 L 687 418 L 687 416 L 688 416 L 688 414 L 689 414 L 689 412 L 690 412 L 690 410 L 691 410 L 691 408 L 692 408 L 692 406 L 693 406 L 693 405 L 694 405 L 694 403 L 695 403 L 695 401 L 696 401 L 696 399 L 697 399 L 697 397 L 698 397 L 698 395 L 699 395 L 699 393 L 700 393 L 700 391 L 701 391 L 701 389 L 702 389 L 702 387 L 703 387 L 703 385 L 704 385 L 704 384 L 705 384 L 705 382 L 706 382 L 706 380 L 707 380 L 707 378 L 708 378 L 708 377 L 709 377 L 709 375 L 710 375 L 710 373 L 711 373 L 711 372 L 712 372 L 712 370 L 713 370 L 713 368 L 714 368 L 714 367 L 715 367 L 715 365 L 716 365 L 716 364 L 717 364 L 717 362 L 718 362 L 718 361 L 719 361 L 719 360 L 720 360 L 720 358 L 721 358 L 721 357 L 722 357 L 722 355 L 723 355 L 723 354 L 724 354 L 724 353 L 725 353 L 725 351 L 726 351 L 726 350 L 727 350 L 727 349 L 728 349 L 728 348 L 729 348 L 729 347 L 730 347 L 730 345 L 731 345 L 731 344 L 732 344 L 732 343 L 733 343 L 733 342 L 734 342 L 734 341 L 735 341 L 735 340 L 736 340 L 736 339 L 737 339 L 737 338 L 738 338 L 738 337 L 739 337 L 739 336 L 740 336 L 740 335 L 741 335 L 741 334 L 742 334 L 742 333 L 743 333 L 743 332 L 744 332 L 744 331 L 745 331 L 745 330 L 747 330 L 747 329 L 748 329 L 748 328 L 749 328 L 749 327 L 751 327 L 751 326 L 752 326 L 752 325 L 753 325 L 753 324 L 755 324 L 755 323 L 756 323 L 756 322 L 758 322 L 758 321 L 760 321 L 760 320 L 761 320 L 761 319 L 763 319 L 763 318 L 765 318 L 765 317 L 767 317 L 767 316 L 769 316 L 769 315 L 772 315 L 772 314 L 774 314 L 774 313 L 778 313 L 778 312 L 781 312 L 781 311 L 786 311 L 786 310 L 791 310 L 791 309 L 796 309 L 796 308 L 821 308 L 821 309 L 826 309 L 826 310 L 830 310 L 830 311 L 834 311 L 834 312 L 837 312 L 837 313 L 839 313 L 839 314 L 842 314 L 842 315 L 844 315 L 844 316 L 846 316 L 846 317 L 848 317 L 848 318 L 850 318 L 850 319 L 851 319 L 851 320 L 853 320 L 853 321 L 854 321 L 854 322 L 856 322 L 856 323 L 857 323 L 857 324 L 858 324 L 858 325 L 860 325 L 860 326 L 861 326 L 861 327 L 862 327 L 862 328 L 863 328 L 863 329 L 864 329 L 864 330 L 865 330 L 865 331 L 866 331 L 866 332 L 867 332 L 867 333 L 868 333 L 868 334 L 869 334 L 869 335 L 870 335 L 870 336 L 871 336 L 871 337 L 872 337 L 872 338 L 873 338 L 873 340 L 874 340 L 874 341 L 875 341 L 875 342 L 876 342 L 876 344 L 877 344 L 877 345 L 878 345 L 878 347 L 879 347 L 879 348 L 880 348 L 880 350 L 881 350 L 881 352 L 882 352 L 882 354 L 883 354 L 883 356 L 884 356 L 884 358 L 885 358 L 885 361 L 886 361 L 886 363 L 887 363 L 887 366 L 888 366 L 888 370 L 889 370 L 889 375 L 890 375 L 890 385 L 891 385 L 891 503 L 890 503 L 890 507 L 889 507 L 889 509 L 888 509 L 888 511 L 887 511 L 887 512 L 886 512 L 886 513 L 885 513 L 885 515 L 883 515 L 883 516 L 882 516 L 882 517 L 881 517 L 881 518 L 879 518 L 879 519 L 876 519 L 876 520 L 873 520 L 873 521 L 864 521 L 864 520 L 860 520 L 860 519 L 858 519 L 858 518 L 856 518 L 856 517 L 854 517 L 854 516 L 853 516 L 853 515 L 852 515 L 852 514 L 851 514 L 851 513 L 850 513 L 850 512 L 849 512 L 849 510 L 848 510 L 848 508 L 847 508 L 847 505 L 846 505 L 846 388 L 845 388 L 845 383 L 844 383 L 844 380 L 843 380 L 843 378 L 842 378 L 842 376 L 841 376 L 841 374 L 840 374 L 840 372 L 839 372 L 839 371 L 838 371 L 838 369 L 837 369 L 837 368 L 836 368 L 836 367 L 835 367 L 835 366 L 834 366 L 834 365 L 833 365 L 833 364 L 832 364 L 832 363 L 831 363 L 831 362 L 830 362 L 830 361 L 829 361 L 829 360 L 827 360 L 827 359 L 826 359 L 826 358 L 825 358 L 825 357 L 823 357 L 823 356 L 821 356 L 821 355 L 819 355 L 819 354 L 816 354 L 816 353 L 814 353 L 814 352 L 810 352 L 810 351 L 795 351 L 795 352 L 790 352 L 790 353 L 787 353 L 787 354 L 785 354 L 785 355 L 783 355 L 783 356 L 781 356 L 781 357 L 779 357 L 779 358 L 777 358 L 777 359 L 775 359 L 775 360 L 774 360 L 774 361 L 773 361 L 773 362 L 771 362 L 771 363 L 770 363 L 770 364 L 769 364 L 769 365 L 768 365 L 768 366 L 767 366 L 767 367 L 766 367 L 766 368 L 765 368 L 765 369 L 764 369 L 764 370 L 763 370 L 763 371 L 762 371 L 762 372 L 761 372 L 761 373 L 760 373 L 760 374 L 759 374 L 759 375 L 758 375 L 758 376 L 757 376 L 757 378 L 756 378 L 756 379 L 755 379 L 755 380 L 754 380 L 754 381 L 753 381 L 753 383 L 752 383 L 752 384 L 751 384 L 751 385 L 750 385 L 750 387 L 749 387 L 749 388 L 748 388 L 748 389 L 747 389 L 747 391 L 746 391 L 746 392 L 745 392 L 745 394 L 744 394 L 744 395 L 743 395 L 743 397 L 742 397 L 742 399 L 741 399 L 741 400 L 740 400 L 740 402 L 739 402 L 739 403 L 738 403 L 738 405 L 737 405 L 737 407 L 736 407 L 736 408 L 735 408 L 735 410 L 734 410 L 734 412 L 733 412 L 733 414 L 732 414 L 732 416 L 731 416 L 731 417 L 730 417 L 730 419 L 729 419 L 729 421 L 728 421 L 728 423 L 727 423 L 727 425 L 726 425 L 726 427 L 725 427 L 725 428 L 724 428 L 724 430 L 723 430 L 723 432 L 722 432 L 722 434 L 721 434 L 721 436 L 720 436 L 720 438 L 719 438 L 719 440 L 718 440 L 718 442 L 717 442 L 717 443 L 716 443 L 716 445 L 715 445 L 715 447 L 714 447 L 714 448 L 713 448 L 713 450 L 712 450 L 712 452 L 711 452 L 711 454 L 710 454 L 710 455 L 709 455 L 709 457 L 708 457 L 708 459 L 707 459 L 707 460 L 706 460 L 706 462 L 705 462 L 705 463 L 704 463 L 704 465 L 703 465 L 703 466 L 702 466 L 702 467 L 701 467 L 701 469 L 700 469 L 700 470 L 699 470 L 699 472 L 698 472 L 698 473 L 697 473 L 697 475 L 696 475 L 696 476 L 695 476 L 695 477 L 694 477 L 694 478 L 693 478 L 693 480 L 692 480 L 692 481 L 691 481 L 691 482 L 690 482 L 690 483 L 689 483 L 689 484 L 688 484 L 688 485 L 687 485 L 687 487 L 686 487 L 686 488 L 685 488 L 685 489 L 684 489 L 684 490 L 683 490 L 683 491 L 682 491 L 682 492 L 681 492 L 681 493 L 680 493 L 680 494 L 679 494 L 679 495 L 677 495 L 677 496 L 676 496 L 676 497 L 675 497 L 675 498 L 674 498 L 674 499 L 673 499 L 673 500 L 672 500 L 672 501 L 670 501 L 670 502 L 669 502 L 669 503 L 668 503 L 668 504 L 666 504 L 666 505 L 665 505 L 665 506 L 663 506 L 663 507 L 661 507 L 661 508 L 660 508 L 660 509 L 658 509 L 658 510 L 656 510 L 656 511 L 654 511 L 654 512 L 652 512 L 652 513 L 650 513 L 650 514 L 648 514 L 648 515 L 645 515 L 645 516 L 643 516 L 643 517 L 640 517 L 640 518 L 637 518 L 637 519 L 634 519 L 634 520 L 631 520 L 631 521 L 627 521 L 627 522 L 623 522 L 623 523 L 619 523 L 619 524 L 613 524 L 613 525 L 604 525 L 604 526 L 586 526 L 586 525 L 578 525 L 578 524 L 573 524 L 573 523 L 569 523 L 569 522 L 565 522 L 565 521 L 563 521 L 563 520 L 560 520 L 560 519 L 557 519 L 557 518 L 555 518 L 555 517 L 553 517 L 553 516 L 551 516 L 551 515 L 549 515 L 549 514 L 547 514 L 547 513 L 545 513 L 545 512 L 544 512 L 544 511 L 542 511 L 542 510 L 540 510 L 540 509 L 539 509 L 539 508 L 537 508 L 537 507 L 536 507 L 536 506 L 535 506 L 535 505 L 533 505 L 533 504 L 532 504 L 532 503 L 531 503 L 531 502 L 529 502 L 529 501 L 528 501 L 528 500 L 527 500 L 527 499 L 526 499 L 526 498 L 525 498 L 525 497 L 524 497 L 524 496 L 523 496 L 523 495 L 522 495 L 522 494 L 521 494 L 521 493 L 520 493 L 520 492 L 519 492 L 519 491 L 518 491 L 518 490 L 517 490 L 517 489 L 516 489 L 516 487 L 515 487 L 515 486 L 514 486 L 514 485 L 513 485 L 513 483 L 512 483 L 512 482 L 511 482 L 511 480 L 510 480 L 510 479 L 509 479 L 509 477 L 508 477 L 508 475 L 507 475 L 507 473 L 506 473 L 506 471 L 505 471 L 505 469 L 504 469 L 504 467 L 503 467 L 503 464 L 502 464 L 502 462 L 501 462 L 501 459 L 500 459 L 500 455 L 499 455 L 499 451 L 498 451 L 498 446 L 497 446 L 497 439 L 496 439 L 496 414 L 495 414 L 495 413 L 494 413 L 494 412 L 492 412 L 492 411 L 491 411 L 491 410 L 489 410 L 489 409 L 487 409 L 487 408 L 486 408 L 486 407 L 484 407 L 484 406 L 483 406 L 483 405 L 481 405 L 481 404 L 480 404 L 480 403 L 479 403 L 479 404 L 478 404 L 478 407 L 477 407 L 477 410 L 476 410 L 476 412 L 475 412 L 475 415 L 474 415 L 474 418 L 473 418 L 473 420 L 472 420 L 472 423 L 471 423 L 471 425 L 470 425 L 470 427 L 469 427 L 469 430 L 468 430 L 468 432 L 467 432 L 467 434 L 466 434 L 466 436 L 465 436 L 465 438 L 464 438 L 464 441 L 463 441 L 463 443 L 462 443 L 462 445 L 461 445 L 461 447 L 460 447 L 460 449 L 459 449 L 459 451 L 458 451 L 458 453 L 457 453 L 457 455 L 456 455 L 456 456 L 455 456 L 455 458 L 454 458 L 454 460 L 453 460 L 453 462 L 452 462 L 452 464 L 451 464 L 451 466 L 450 466 L 450 467 L 449 467 L 449 469 L 448 469 L 448 471 L 447 471 L 447 472 L 446 472 L 446 474 L 445 474 L 445 475 L 444 475 L 444 477 L 443 477 L 443 479 L 442 479 L 442 480 L 441 480 L 441 482 L 440 482 L 440 483 L 439 483 L 439 485 L 438 485 L 438 486 L 437 486 L 437 488 L 436 488 L 436 489 L 435 489 L 435 490 L 434 490 L 434 492 L 433 492 L 433 493 L 432 493 L 432 495 L 431 495 L 431 496 L 430 496 L 430 497 L 429 497 L 429 498 L 428 498 L 428 500 L 427 500 L 427 501 L 426 501 L 426 502 L 425 502 L 425 503 L 424 503 L 424 504 L 423 504 L 423 505 L 422 505 L 422 506 L 421 506 L 421 507 L 420 507 L 420 508 L 419 508 L 419 509 L 418 509 L 418 510 L 417 510 L 417 511 L 416 511 L 416 512 L 415 512 L 415 513 L 414 513 L 414 514 L 413 514 L 413 515 L 412 515 L 412 516 L 411 516 L 411 517 L 409 517 L 409 518 L 408 518 L 408 519 L 406 519 L 406 520 L 405 520 L 405 521 L 403 521 L 403 522 L 401 522 L 401 523 L 399 523 L 399 524 L 396 524 L 396 525 L 392 525 L 392 526 L 383 526 L 383 525 L 379 525 L 379 524 L 377 524 L 377 523 L 375 523 L 375 522 L 373 522 L 373 521 L 372 521 L 372 520 L 370 520 L 370 519 L 369 519 L 369 518 L 368 518 L 368 517 L 367 517 L 367 516 L 366 516 L 366 515 L 365 515 L 365 514 L 364 514 L 364 513 L 363 513 L 363 512 L 362 512 L 362 511 L 361 511 L 361 510 L 360 510 L 360 509 L 359 509 L 359 508 L 358 508 L 358 507 L 357 507 L 357 506 L 356 506 L 356 505 L 355 505 L 355 504 L 354 504 L 354 503 L 353 503 L 353 502 L 352 502 L 352 501 L 351 501 L 351 500 L 350 500 L 350 499 L 349 499 L 349 498 L 348 498 L 348 497 L 347 497 L 347 496 L 346 496 L 346 495 L 345 495 L 345 494 L 344 494 L 344 493 L 343 493 L 343 492 L 342 492 L 342 491 L 341 491 L 341 489 L 340 489 L 340 488 L 339 488 L 339 487 L 338 487 L 338 486 L 337 486 L 337 485 L 336 485 L 336 484 L 335 484 L 335 483 L 334 483 L 334 482 L 333 482 L 333 480 L 332 480 L 332 479 L 331 479 L 331 478 L 330 478 L 330 477 L 329 477 L 329 476 L 328 476 L 328 475 L 327 475 L 327 473 L 326 473 L 326 472 L 325 472 L 325 471 L 324 471 L 324 470 L 323 470 L 323 469 L 322 469 L 322 467 L 321 467 L 321 466 L 320 466 L 320 465 L 319 465 L 319 464 L 318 464 L 318 463 L 317 463 L 317 462 L 316 462 L 316 460 L 315 460 L 315 459 L 314 459 L 314 458 L 313 458 L 313 457 L 312 457 L 312 456 L 311 456 L 311 454 L 310 454 L 310 453 L 309 453 L 309 452 L 308 452 L 308 451 L 307 451 L 307 450 L 306 450 L 306 449 L 305 449 L 305 447 L 304 447 L 304 446 L 303 446 L 303 445 L 302 445 L 302 444 L 301 444 L 301 443 L 300 443 L 300 442 L 299 442 L 299 441 L 298 441 L 298 440 L 297 440 L 297 438 L 296 438 L 296 437 L 295 437 L 295 436 L 294 436 L 294 435 L 292 435 L 292 436 L 291 436 L 291 437 L 290 437 L 290 438 L 289 438 L 289 439 L 288 439 L 288 440 L 287 440 L 287 441 L 286 441 L 286 443 L 285 443 L 285 444 L 284 444 L 284 445 L 283 445 L 283 446 L 282 446 L 282 447 L 281 447 L 281 448 L 280 448 L 280 449 L 279 449 L 279 450 L 278 450 L 278 451 L 277 451 L 277 452 L 276 452 L 276 453 L 275 453 L 275 455 L 274 455 L 274 456 L 273 456 L 273 457 L 272 457 L 272 458 L 271 458 L 271 459 L 270 459 L 270 460 L 269 460 L 269 461 L 268 461 L 268 462 L 267 462 L 267 463 L 266 463 L 266 464 L 265 464 L 265 465 L 264 465 L 264 466 L 263 466 L 263 467 L 262 467 L 262 468 L 261 468 L 261 469 L 260 469 L 260 471 L 258 471 L 258 472 L 257 472 L 257 473 L 256 473 L 256 474 L 255 474 L 255 475 L 254 475 L 254 476 L 253 476 L 253 477 L 252 477 L 252 478 L 251 478 L 251 479 L 250 479 L 250 480 L 249 480 L 249 481 L 248 481 L 248 482 L 247 482 L 247 483 L 246 483 L 246 484 L 244 484 L 244 485 L 243 485 L 243 486 L 242 486 L 242 487 L 241 487 L 241 488 L 239 488 L 239 489 L 238 489 L 238 490 L 237 490 L 237 491 L 236 491 L 236 492 L 234 492 L 234 493 L 233 493 L 233 494 L 231 494 L 231 495 L 230 495 L 230 496 L 228 496 L 228 497 L 227 497 L 227 498 L 225 498 L 225 499 L 223 499 L 223 500 L 222 500 L 222 501 L 220 501 L 220 502 L 218 502 L 218 503 L 217 503 L 217 504 L 215 504 L 215 505 L 213 505 L 213 506 L 211 506 L 211 507 L 209 507 L 209 508 L 205 508 L 205 509 L 195 509 L 195 508 L 191 508 L 191 507 L 189 507 L 189 506 L 187 506 L 187 505 L 186 505 L 186 504 L 185 504 L 185 503 L 183 503 L 183 502 L 182 502 L 182 500 L 181 500 L 181 499 L 180 499 L 180 497 L 179 497 L 179 496 L 178 496 L 178 493 L 177 493 L 177 488 L 176 488 L 176 483 L 177 483 L 177 478 L 178 478 L 178 476 L 179 476 L 179 474 L 180 474 L 180 472 L 181 472 L 181 471 L 182 471 L 182 470 L 183 470 L 183 469 L 184 469 L 184 468 L 185 468 L 185 467 L 186 467 L 186 466 L 188 466 L 188 465 L 189 465 L 189 464 L 191 464 L 191 463 L 193 463 L 193 462 L 195 462 L 195 461 L 197 461 L 197 460 L 198 460 L 198 459 L 200 459 L 200 458 L 201 458 L 201 457 L 203 457 L 203 456 L 205 456 L 205 455 L 206 455 L 206 454 L 207 454 L 207 453 L 209 453 L 209 452 L 210 452 L 210 451 L 211 451 L 211 450 L 213 450 L 213 449 L 214 449 L 214 448 L 215 448 L 215 447 L 216 447 L 216 446 L 217 446 L 217 445 L 218 445 L 218 444 L 219 444 L 219 443 L 221 443 L 221 442 L 222 442 L 222 441 L 223 441 L 223 440 L 224 440 L 224 439 L 225 439 L 225 438 L 226 438 L 226 437 L 227 437 L 227 436 L 228 436 L 228 435 L 229 435 L 229 433 L 230 433 L 230 432 L 231 432 L 231 431 L 232 431 L 232 430 L 233 430 L 233 429 L 234 429 L 234 428 L 235 428 L 235 427 L 236 427 L 236 426 L 237 426 L 237 425 L 238 425 L 238 424 L 239 424 L 239 423 L 240 423 L 240 422 L 241 422 L 241 421 L 242 421 L 242 420 L 243 420 L 243 419 L 244 419 L 244 418 L 245 418 L 245 416 L 246 416 L 246 415 L 247 415 L 247 414 L 248 414 L 248 413 L 249 413 L 249 412 L 250 412 L 250 411 L 251 411 L 251 410 L 252 410 L 252 409 L 253 409 L 253 407 L 254 407 L 254 406 L 255 406 L 255 405 L 256 405 L 256 404 L 257 404 L 257 403 L 258 403 L 258 402 L 259 402 L 259 400 L 260 400 L 260 399 L 261 399 L 261 397 L 260 397 L 260 395 L 259 395 L 259 394 L 258 394 L 258 393 L 257 393 L 257 392 L 256 392 L 256 390 L 255 390 L 255 389 L 254 389 L 254 388 L 253 388 L 253 387 L 252 387 L 252 385 L 251 385 L 251 384 L 250 384 L 250 383 L 249 383 L 249 382 L 248 382 L 248 380 L 247 380 L 247 379 L 246 379 L 246 378 L 245 378 L 245 377 L 244 377 L 244 375 L 243 375 L 243 374 L 242 374 L 242 373 L 241 373 L 241 371 L 240 371 L 240 370 L 239 370 L 239 368 L 238 368 L 238 367 L 237 367 L 237 366 L 236 366 L 236 364 L 235 364 L 235 363 L 234 363 L 234 361 L 233 361 L 233 360 L 232 360 L 232 358 L 231 358 L 231 357 L 230 357 L 230 355 L 229 355 L 229 353 L 228 353 L 228 351 L 227 351 L 227 350 L 226 350 L 226 348 L 225 348 L 225 346 L 224 346 L 224 344 L 223 344 L 223 342 L 222 342 L 222 340 L 221 340 L 221 338 L 220 338 L 220 335 L 219 335 L 219 332 L 218 332 L 218 329 L 217 329 L 217 326 L 216 326 L 216 322 L 215 322 L 215 318 L 214 318 L 214 312 L 213 312 L 213 290 L 214 290 L 214 283 L 215 283 L 215 279 L 216 279 L 216 275 L 217 275 L 217 272 L 218 272 L 218 269 L 219 269 L 219 266 L 220 266 L 220 263 L 221 263 L 221 261 L 222 261 L 222 260 L 223 260 L 223 258 L 224 258 L 224 256 L 225 256 L 225 254 L 226 254 L 226 253 L 227 253 L 227 251 L 228 251 L 228 250 L 229 250 L 229 248 L 230 248 L 230 247 L 231 247 L 231 246 L 232 246 L 232 245 L 233 245 L 233 244 L 234 244 L 234 242 L 235 242 L 235 241 L 236 241 L 236 240 L 237 240 L 237 239 L 238 239 L 238 238 L 240 238 L 240 237 L 241 237 L 241 236 L 242 236 L 242 235 L 243 235 L 243 234 L 244 234 L 244 233 L 246 233 L 246 232 L 247 232 L 247 231 L 248 231 L 248 230 L 250 230 L 250 229 L 252 229 L 252 228 L 254 228 L 254 227 L 255 227 L 255 226 L 257 226 L 257 225 L 260 225 L 260 224 L 262 224 L 262 223 L 265 223 L 265 222 L 268 222 L 268 221 L 272 221 L 272 220 L 280 220 Z M 279 267 L 279 268 L 277 268 L 277 269 L 275 269 L 275 270 L 274 270 L 274 271 L 272 271 L 272 272 L 271 272 L 271 273 L 270 273 L 270 274 L 269 274 L 269 275 L 268 275 L 268 277 L 267 277 L 267 278 L 266 278 L 266 279 L 265 279 L 265 281 L 264 281 L 264 283 L 263 283 L 263 286 L 262 286 L 262 289 L 261 289 L 261 295 L 260 295 L 260 307 L 261 307 L 261 312 L 262 312 L 262 315 L 263 315 L 263 318 L 264 318 L 264 321 L 265 321 L 265 323 L 266 323 L 266 325 L 267 325 L 267 326 L 268 326 L 268 328 L 269 328 L 269 330 L 270 330 L 270 332 L 271 332 L 271 333 L 272 333 L 272 335 L 273 335 L 273 336 L 274 336 L 274 338 L 275 338 L 275 339 L 276 339 L 276 340 L 277 340 L 277 342 L 278 342 L 278 343 L 279 343 L 279 344 L 280 344 L 280 346 L 281 346 L 281 347 L 282 347 L 282 348 L 283 348 L 283 350 L 284 350 L 284 351 L 285 351 L 285 352 L 286 352 L 286 354 L 287 354 L 287 355 L 288 355 L 288 356 L 290 356 L 290 354 L 291 354 L 291 352 L 292 352 L 292 350 L 293 350 L 293 348 L 294 348 L 294 345 L 295 345 L 295 343 L 296 343 L 296 340 L 297 340 L 297 338 L 298 338 L 298 335 L 299 335 L 299 332 L 300 332 L 300 329 L 301 329 L 301 325 L 302 325 L 302 321 L 303 321 L 303 315 L 304 315 L 304 304 L 305 304 L 305 296 L 304 296 L 304 287 L 303 287 L 303 283 L 302 283 L 302 280 L 301 280 L 301 278 L 300 278 L 300 276 L 299 276 L 299 275 L 298 275 L 298 274 L 297 274 L 297 273 L 296 273 L 296 272 L 295 272 L 295 271 L 294 271 L 294 270 L 293 270 L 293 269 L 291 269 L 291 268 L 289 268 L 289 267 Z M 996 307 L 1004 307 L 1004 308 L 1014 308 L 1014 309 L 1019 309 L 1019 310 L 1024 310 L 1024 311 L 1027 311 L 1027 312 L 1030 312 L 1030 313 L 1033 313 L 1033 314 L 1036 314 L 1036 315 L 1038 315 L 1038 316 L 1040 316 L 1040 317 L 1042 317 L 1042 318 L 1044 318 L 1044 319 L 1045 319 L 1045 320 L 1047 320 L 1047 321 L 1049 321 L 1049 322 L 1050 322 L 1050 323 L 1051 323 L 1051 324 L 1053 324 L 1053 325 L 1054 325 L 1054 326 L 1055 326 L 1055 327 L 1056 327 L 1056 328 L 1058 328 L 1058 329 L 1059 329 L 1059 330 L 1060 330 L 1060 331 L 1061 331 L 1061 333 L 1062 333 L 1062 334 L 1063 334 L 1063 335 L 1064 335 L 1064 336 L 1065 336 L 1065 337 L 1066 337 L 1066 338 L 1067 338 L 1067 340 L 1068 340 L 1068 341 L 1069 341 L 1069 343 L 1070 343 L 1070 344 L 1071 344 L 1071 346 L 1072 346 L 1072 348 L 1073 348 L 1073 350 L 1074 350 L 1074 352 L 1075 352 L 1075 355 L 1076 355 L 1076 357 L 1077 357 L 1077 360 L 1078 360 L 1078 363 L 1079 363 L 1079 366 L 1080 366 L 1080 369 L 1081 369 L 1081 374 L 1082 374 L 1082 507 L 1081 507 L 1081 510 L 1080 510 L 1080 512 L 1079 512 L 1079 513 L 1078 513 L 1078 514 L 1077 514 L 1077 515 L 1076 515 L 1076 516 L 1075 516 L 1075 517 L 1074 517 L 1074 518 L 1072 518 L 1072 519 L 1070 519 L 1070 520 L 1066 520 L 1066 521 L 1059 521 L 1059 520 L 1055 520 L 1055 519 L 1053 519 L 1053 518 L 1052 518 L 1052 517 L 1050 517 L 1050 516 L 1049 516 L 1049 515 L 1048 515 L 1048 514 L 1047 514 L 1047 512 L 1046 512 L 1046 511 L 1045 511 L 1045 509 L 1044 509 L 1044 506 L 1043 506 L 1043 504 L 1042 504 L 1042 500 L 1041 500 L 1041 498 L 1037 498 L 1037 499 L 1036 499 L 1036 500 L 1035 500 L 1035 501 L 1034 501 L 1034 502 L 1033 502 L 1033 503 L 1032 503 L 1032 504 L 1031 504 L 1031 505 L 1030 505 L 1030 506 L 1029 506 L 1029 507 L 1028 507 L 1028 508 L 1027 508 L 1027 509 L 1026 509 L 1026 510 L 1025 510 L 1025 511 L 1023 511 L 1023 512 L 1022 512 L 1022 513 L 1021 513 L 1021 514 L 1019 514 L 1019 515 L 1017 515 L 1017 516 L 1016 516 L 1016 517 L 1014 517 L 1014 518 L 1012 518 L 1012 519 L 1010 519 L 1010 520 L 1007 520 L 1007 521 L 1004 521 L 1004 522 L 1001 522 L 1001 523 L 998 523 L 998 524 L 994 524 L 994 525 L 987 525 L 987 526 L 970 526 L 970 525 L 963 525 L 963 524 L 959 524 L 959 523 L 955 523 L 955 522 L 952 522 L 952 521 L 949 521 L 949 520 L 947 520 L 947 519 L 944 519 L 944 518 L 942 518 L 942 517 L 940 517 L 940 516 L 938 516 L 938 515 L 937 515 L 937 514 L 935 514 L 935 513 L 934 513 L 934 512 L 932 512 L 932 511 L 931 511 L 931 510 L 930 510 L 930 509 L 928 509 L 928 508 L 927 508 L 927 507 L 926 507 L 926 506 L 925 506 L 925 505 L 924 505 L 924 504 L 923 504 L 923 503 L 922 503 L 922 502 L 921 502 L 921 501 L 920 501 L 920 500 L 919 500 L 919 498 L 918 498 L 918 497 L 917 497 L 917 496 L 916 496 L 916 494 L 915 494 L 915 492 L 914 492 L 914 491 L 913 491 L 913 489 L 912 489 L 912 486 L 911 486 L 911 484 L 910 484 L 910 481 L 909 481 L 909 477 L 908 477 L 908 472 L 907 472 L 907 456 L 908 456 L 908 450 L 909 450 L 909 446 L 910 446 L 910 443 L 911 443 L 911 440 L 912 440 L 912 438 L 913 438 L 913 436 L 914 436 L 914 434 L 915 434 L 915 432 L 916 432 L 916 431 L 917 431 L 917 429 L 918 429 L 918 428 L 919 428 L 919 427 L 920 427 L 920 425 L 921 425 L 921 424 L 922 424 L 922 423 L 923 423 L 923 422 L 924 422 L 924 421 L 925 421 L 925 420 L 927 420 L 927 419 L 928 419 L 928 418 L 929 418 L 929 417 L 930 417 L 930 416 L 932 416 L 932 415 L 933 415 L 933 414 L 934 414 L 934 413 L 936 413 L 936 412 L 938 412 L 938 411 L 939 411 L 939 410 L 941 410 L 941 409 L 944 409 L 944 408 L 946 408 L 946 407 L 948 407 L 948 406 L 950 406 L 950 405 L 953 405 L 953 404 L 956 404 L 956 403 L 959 403 L 959 402 L 962 402 L 962 401 L 966 401 L 966 400 L 970 400 L 970 399 L 976 399 L 976 398 L 981 398 L 981 397 L 989 397 L 989 396 L 999 396 L 999 395 L 1037 395 L 1037 391 L 1038 391 L 1038 387 L 1037 387 L 1037 379 L 1036 379 L 1036 375 L 1035 375 L 1035 372 L 1034 372 L 1034 369 L 1033 369 L 1033 368 L 1032 368 L 1032 366 L 1031 366 L 1031 364 L 1030 364 L 1030 363 L 1029 363 L 1029 361 L 1028 361 L 1028 360 L 1027 360 L 1027 359 L 1026 359 L 1026 358 L 1025 358 L 1025 357 L 1024 357 L 1024 356 L 1022 356 L 1022 355 L 1021 355 L 1021 354 L 1019 354 L 1019 353 L 1018 353 L 1018 352 L 1015 352 L 1015 351 L 1013 351 L 1013 350 L 1009 350 L 1009 349 L 1004 349 L 1004 348 L 994 348 L 994 349 L 989 349 L 989 350 L 985 350 L 985 351 L 983 351 L 983 352 L 981 352 L 981 353 L 979 353 L 979 354 L 977 354 L 977 355 L 976 355 L 976 356 L 974 356 L 974 357 L 973 357 L 973 358 L 972 358 L 972 359 L 971 359 L 971 360 L 970 360 L 970 361 L 969 361 L 969 362 L 968 362 L 968 363 L 967 363 L 967 365 L 966 365 L 966 367 L 965 367 L 965 368 L 964 368 L 964 369 L 963 369 L 963 370 L 962 370 L 962 371 L 961 371 L 961 372 L 959 372 L 959 373 L 958 373 L 958 374 L 956 374 L 956 375 L 952 375 L 952 376 L 942 376 L 942 375 L 939 375 L 939 374 L 937 374 L 937 373 L 935 373 L 935 372 L 934 372 L 934 371 L 933 371 L 933 370 L 931 370 L 931 368 L 930 368 L 930 367 L 929 367 L 929 366 L 928 366 L 928 364 L 927 364 L 927 362 L 926 362 L 926 358 L 925 358 L 925 350 L 926 350 L 926 347 L 927 347 L 927 344 L 928 344 L 928 343 L 929 343 L 929 341 L 930 341 L 930 340 L 931 340 L 931 339 L 932 339 L 932 337 L 933 337 L 933 336 L 934 336 L 934 335 L 935 335 L 935 334 L 936 334 L 936 333 L 937 333 L 937 332 L 938 332 L 938 331 L 939 331 L 939 330 L 940 330 L 940 329 L 941 329 L 941 328 L 942 328 L 942 327 L 943 327 L 943 326 L 945 326 L 945 325 L 946 325 L 946 324 L 947 324 L 947 323 L 949 323 L 949 322 L 950 322 L 950 321 L 952 321 L 952 320 L 953 320 L 953 319 L 955 319 L 955 318 L 957 318 L 957 317 L 959 317 L 959 316 L 961 316 L 961 315 L 964 315 L 964 314 L 966 314 L 966 313 L 969 313 L 969 312 L 972 312 L 972 311 L 976 311 L 976 310 L 980 310 L 980 309 L 986 309 L 986 308 L 996 308 Z M 1189 308 L 1199 308 L 1199 309 L 1202 309 L 1202 310 L 1204 310 L 1204 311 L 1206 311 L 1206 312 L 1207 312 L 1207 313 L 1208 313 L 1208 314 L 1209 314 L 1209 315 L 1210 315 L 1210 316 L 1211 316 L 1211 317 L 1212 317 L 1212 318 L 1213 318 L 1213 320 L 1214 320 L 1214 322 L 1215 322 L 1215 325 L 1216 325 L 1216 336 L 1215 336 L 1215 339 L 1214 339 L 1214 341 L 1213 341 L 1213 343 L 1212 343 L 1212 344 L 1211 344 L 1211 345 L 1210 345 L 1210 346 L 1209 346 L 1209 347 L 1208 347 L 1208 348 L 1207 348 L 1207 349 L 1206 349 L 1206 350 L 1204 350 L 1204 351 L 1202 351 L 1202 352 L 1198 352 L 1198 353 L 1190 353 L 1190 354 L 1185 354 L 1185 355 L 1181 355 L 1181 356 L 1178 356 L 1178 357 L 1175 357 L 1175 358 L 1173 358 L 1173 359 L 1172 359 L 1172 360 L 1170 360 L 1170 361 L 1168 361 L 1168 362 L 1167 362 L 1167 363 L 1166 363 L 1166 364 L 1165 364 L 1165 365 L 1164 365 L 1164 366 L 1162 366 L 1162 367 L 1161 367 L 1161 368 L 1160 368 L 1160 370 L 1159 370 L 1159 371 L 1158 371 L 1158 372 L 1157 372 L 1157 374 L 1156 374 L 1156 376 L 1155 376 L 1155 377 L 1154 377 L 1154 380 L 1153 380 L 1153 382 L 1152 382 L 1152 384 L 1151 384 L 1151 388 L 1150 388 L 1150 392 L 1149 392 L 1149 400 L 1148 400 L 1148 503 L 1147 503 L 1147 507 L 1146 507 L 1146 509 L 1145 509 L 1145 511 L 1144 511 L 1144 512 L 1143 512 L 1143 513 L 1142 513 L 1142 514 L 1141 514 L 1141 515 L 1140 515 L 1140 516 L 1139 516 L 1139 517 L 1137 517 L 1137 518 L 1136 518 L 1136 519 L 1133 519 L 1133 520 L 1129 520 L 1129 521 L 1122 521 L 1122 520 L 1118 520 L 1118 519 L 1116 519 L 1116 518 L 1114 518 L 1114 517 L 1112 517 L 1112 516 L 1111 516 L 1111 515 L 1110 515 L 1110 514 L 1109 514 L 1109 513 L 1108 513 L 1108 512 L 1107 512 L 1107 510 L 1106 510 L 1106 509 L 1105 509 L 1105 506 L 1104 506 L 1104 503 L 1103 503 L 1103 328 L 1104 328 L 1104 324 L 1105 324 L 1105 322 L 1106 322 L 1106 321 L 1107 321 L 1107 319 L 1108 319 L 1108 318 L 1109 318 L 1109 317 L 1110 317 L 1110 316 L 1112 316 L 1112 315 L 1114 315 L 1114 314 L 1116 314 L 1116 313 L 1122 313 L 1122 312 L 1123 312 L 1123 313 L 1129 313 L 1129 314 L 1131 314 L 1131 315 L 1133 315 L 1133 316 L 1135 316 L 1135 317 L 1136 317 L 1136 318 L 1137 318 L 1137 320 L 1138 320 L 1138 321 L 1139 321 L 1139 322 L 1140 322 L 1140 324 L 1141 324 L 1141 327 L 1142 327 L 1142 329 L 1143 329 L 1143 332 L 1144 332 L 1144 334 L 1145 334 L 1145 335 L 1148 335 L 1148 334 L 1149 334 L 1149 333 L 1150 333 L 1150 331 L 1151 331 L 1151 330 L 1152 330 L 1152 329 L 1153 329 L 1153 328 L 1154 328 L 1154 327 L 1155 327 L 1155 326 L 1156 326 L 1156 325 L 1157 325 L 1157 324 L 1158 324 L 1158 323 L 1159 323 L 1159 322 L 1161 322 L 1161 321 L 1162 321 L 1162 320 L 1163 320 L 1163 319 L 1165 319 L 1165 318 L 1166 318 L 1166 317 L 1168 317 L 1168 316 L 1170 316 L 1170 315 L 1171 315 L 1171 314 L 1174 314 L 1174 313 L 1176 313 L 1176 312 L 1178 312 L 1178 311 L 1181 311 L 1181 310 L 1185 310 L 1185 309 L 1189 309 Z M 1305 308 L 1334 308 L 1334 309 L 1339 309 L 1339 310 L 1344 310 L 1344 311 L 1347 311 L 1347 312 L 1351 312 L 1351 313 L 1354 313 L 1354 314 L 1356 314 L 1356 315 L 1359 315 L 1359 316 L 1361 316 L 1361 317 L 1363 317 L 1363 318 L 1365 318 L 1365 319 L 1367 319 L 1367 320 L 1369 320 L 1369 321 L 1371 321 L 1371 322 L 1372 322 L 1372 323 L 1374 323 L 1374 324 L 1375 324 L 1375 325 L 1377 325 L 1377 326 L 1378 326 L 1378 327 L 1380 327 L 1380 328 L 1381 328 L 1381 329 L 1382 329 L 1382 330 L 1383 330 L 1383 331 L 1385 331 L 1385 332 L 1386 332 L 1386 333 L 1387 333 L 1387 334 L 1388 334 L 1388 335 L 1389 335 L 1389 336 L 1390 336 L 1390 337 L 1391 337 L 1391 338 L 1392 338 L 1392 339 L 1393 339 L 1393 340 L 1394 340 L 1394 341 L 1395 341 L 1395 342 L 1396 342 L 1396 344 L 1397 344 L 1397 345 L 1398 345 L 1398 346 L 1399 346 L 1399 347 L 1400 347 L 1400 348 L 1401 348 L 1401 350 L 1402 350 L 1402 351 L 1403 351 L 1403 353 L 1404 353 L 1404 354 L 1405 354 L 1405 356 L 1406 356 L 1406 357 L 1407 357 L 1407 359 L 1408 359 L 1408 361 L 1409 361 L 1409 362 L 1410 362 L 1410 364 L 1411 364 L 1411 366 L 1412 366 L 1412 368 L 1413 368 L 1413 371 L 1414 371 L 1414 373 L 1415 373 L 1415 376 L 1416 376 L 1416 378 L 1417 378 L 1417 381 L 1418 381 L 1418 384 L 1419 384 L 1419 388 L 1420 388 L 1420 392 L 1421 392 L 1421 396 L 1422 396 L 1422 403 L 1423 403 L 1423 433 L 1422 433 L 1422 439 L 1421 439 L 1421 443 L 1420 443 L 1420 447 L 1419 447 L 1419 451 L 1418 451 L 1418 454 L 1417 454 L 1417 456 L 1416 456 L 1416 459 L 1415 459 L 1415 461 L 1414 461 L 1414 464 L 1413 464 L 1413 466 L 1412 466 L 1412 468 L 1411 468 L 1411 470 L 1410 470 L 1410 472 L 1409 472 L 1409 473 L 1408 473 L 1408 475 L 1407 475 L 1407 477 L 1406 477 L 1406 478 L 1405 478 L 1405 480 L 1404 480 L 1404 481 L 1403 481 L 1403 483 L 1402 483 L 1402 484 L 1401 484 L 1401 485 L 1400 485 L 1400 487 L 1399 487 L 1399 488 L 1398 488 L 1398 489 L 1397 489 L 1397 490 L 1396 490 L 1396 491 L 1395 491 L 1395 492 L 1394 492 L 1394 494 L 1393 494 L 1393 495 L 1392 495 L 1392 496 L 1391 496 L 1391 497 L 1390 497 L 1390 498 L 1389 498 L 1389 499 L 1388 499 L 1388 500 L 1387 500 L 1387 501 L 1385 501 L 1385 502 L 1384 502 L 1384 503 L 1383 503 L 1383 504 L 1382 504 L 1382 505 L 1381 505 L 1381 506 L 1379 506 L 1379 507 L 1378 507 L 1378 508 L 1376 508 L 1376 509 L 1375 509 L 1375 510 L 1374 510 L 1374 511 L 1372 511 L 1372 512 L 1370 512 L 1370 513 L 1369 513 L 1369 514 L 1367 514 L 1367 515 L 1365 515 L 1365 516 L 1363 516 L 1363 517 L 1361 517 L 1361 518 L 1359 518 L 1359 519 L 1356 519 L 1356 520 L 1353 520 L 1353 521 L 1350 521 L 1350 522 L 1347 522 L 1347 523 L 1344 523 L 1344 524 L 1339 524 L 1339 525 L 1332 525 L 1332 526 L 1311 526 L 1311 525 L 1304 525 L 1304 524 L 1299 524 L 1299 523 L 1295 523 L 1295 522 L 1292 522 L 1292 521 L 1289 521 L 1289 520 L 1286 520 L 1286 519 L 1284 519 L 1284 518 L 1281 518 L 1281 517 L 1279 517 L 1279 516 L 1277 516 L 1277 515 L 1275 515 L 1275 514 L 1273 514 L 1273 513 L 1271 513 L 1271 512 L 1269 512 L 1269 511 L 1268 511 L 1268 510 L 1266 510 L 1266 509 L 1264 509 L 1264 508 L 1263 508 L 1263 507 L 1262 507 L 1262 506 L 1260 506 L 1260 505 L 1259 505 L 1259 504 L 1257 504 L 1257 503 L 1256 503 L 1256 502 L 1255 502 L 1255 501 L 1254 501 L 1254 500 L 1253 500 L 1253 499 L 1252 499 L 1252 498 L 1251 498 L 1251 497 L 1250 497 L 1250 496 L 1248 496 L 1248 495 L 1247 495 L 1247 494 L 1246 494 L 1246 493 L 1245 493 L 1245 491 L 1244 491 L 1244 490 L 1243 490 L 1243 489 L 1242 489 L 1242 488 L 1241 488 L 1241 487 L 1240 487 L 1240 485 L 1239 485 L 1239 484 L 1238 484 L 1238 483 L 1237 483 L 1237 482 L 1236 482 L 1236 480 L 1235 480 L 1235 479 L 1234 479 L 1234 477 L 1233 477 L 1233 475 L 1232 475 L 1232 474 L 1231 474 L 1231 472 L 1230 472 L 1230 470 L 1229 470 L 1229 468 L 1228 468 L 1228 466 L 1227 466 L 1227 464 L 1226 464 L 1226 462 L 1225 462 L 1225 460 L 1224 460 L 1224 457 L 1223 457 L 1223 455 L 1222 455 L 1222 452 L 1221 452 L 1221 448 L 1220 448 L 1220 444 L 1219 444 L 1219 440 L 1218 440 L 1218 435 L 1217 435 L 1217 427 L 1216 427 L 1216 407 L 1217 407 L 1217 399 L 1218 399 L 1218 394 L 1219 394 L 1219 390 L 1220 390 L 1220 386 L 1221 386 L 1221 383 L 1222 383 L 1222 380 L 1223 380 L 1223 377 L 1224 377 L 1224 374 L 1225 374 L 1225 372 L 1226 372 L 1226 370 L 1227 370 L 1227 368 L 1228 368 L 1228 366 L 1229 366 L 1229 364 L 1230 364 L 1230 362 L 1231 362 L 1231 360 L 1232 360 L 1232 359 L 1233 359 L 1233 357 L 1234 357 L 1234 355 L 1235 355 L 1235 354 L 1236 354 L 1236 352 L 1237 352 L 1237 351 L 1238 351 L 1238 350 L 1239 350 L 1239 348 L 1240 348 L 1240 347 L 1241 347 L 1241 346 L 1242 346 L 1242 345 L 1243 345 L 1243 343 L 1244 343 L 1244 342 L 1245 342 L 1245 341 L 1246 341 L 1246 340 L 1247 340 L 1247 339 L 1248 339 L 1248 338 L 1249 338 L 1249 337 L 1250 337 L 1250 336 L 1251 336 L 1251 335 L 1252 335 L 1252 334 L 1253 334 L 1253 333 L 1254 333 L 1254 332 L 1255 332 L 1255 331 L 1256 331 L 1256 330 L 1258 330 L 1258 329 L 1259 329 L 1259 328 L 1260 328 L 1260 327 L 1262 327 L 1262 326 L 1263 326 L 1263 325 L 1264 325 L 1264 324 L 1266 324 L 1266 323 L 1267 323 L 1267 322 L 1269 322 L 1269 321 L 1271 321 L 1271 320 L 1272 320 L 1272 319 L 1274 319 L 1274 318 L 1276 318 L 1276 317 L 1278 317 L 1278 316 L 1280 316 L 1280 315 L 1283 315 L 1283 314 L 1285 314 L 1285 313 L 1288 313 L 1288 312 L 1292 312 L 1292 311 L 1295 311 L 1295 310 L 1300 310 L 1300 309 L 1305 309 Z M 587 349 L 587 350 L 580 350 L 580 351 L 577 351 L 577 352 L 574 352 L 574 353 L 571 353 L 571 354 L 569 354 L 569 355 L 567 355 L 567 356 L 565 356 L 565 357 L 564 357 L 564 358 L 562 358 L 562 359 L 561 359 L 561 360 L 560 360 L 560 361 L 559 361 L 559 362 L 558 362 L 558 363 L 557 363 L 557 364 L 556 364 L 556 365 L 555 365 L 555 366 L 554 366 L 554 367 L 553 367 L 553 369 L 552 369 L 552 370 L 551 370 L 551 372 L 550 372 L 550 374 L 549 374 L 549 376 L 548 376 L 548 378 L 547 378 L 547 380 L 546 380 L 546 382 L 545 382 L 545 385 L 544 385 L 544 388 L 543 388 L 543 391 L 542 391 L 542 393 L 543 393 L 543 394 L 546 394 L 546 395 L 549 395 L 549 396 L 551 396 L 551 397 L 554 397 L 554 398 L 558 398 L 558 399 L 562 399 L 562 400 L 566 400 L 566 401 L 571 401 L 571 402 L 576 402 L 576 403 L 583 403 L 583 404 L 608 404 L 608 403 L 613 403 L 613 402 L 616 402 L 616 401 L 620 401 L 620 400 L 622 400 L 622 399 L 624 399 L 624 398 L 626 398 L 626 397 L 627 397 L 627 396 L 628 396 L 628 395 L 629 395 L 629 394 L 630 394 L 630 393 L 631 393 L 631 392 L 632 392 L 632 390 L 633 390 L 633 389 L 634 389 L 634 385 L 635 385 L 635 372 L 634 372 L 634 368 L 633 368 L 633 367 L 632 367 L 632 365 L 631 365 L 631 364 L 630 364 L 630 363 L 629 363 L 629 362 L 628 362 L 628 361 L 627 361 L 627 360 L 626 360 L 626 359 L 625 359 L 625 358 L 624 358 L 624 357 L 622 357 L 622 356 L 620 356 L 620 355 L 618 355 L 618 354 L 616 354 L 616 353 L 613 353 L 613 352 L 610 352 L 610 351 L 606 351 L 606 350 L 599 350 L 599 349 Z M 1320 349 L 1320 350 L 1309 350 L 1309 351 L 1305 351 L 1305 352 L 1302 352 L 1302 353 L 1299 353 L 1299 354 L 1297 354 L 1297 355 L 1295 355 L 1295 356 L 1293 356 L 1293 357 L 1291 357 L 1291 358 L 1289 358 L 1289 359 L 1288 359 L 1288 360 L 1286 360 L 1286 361 L 1285 361 L 1285 362 L 1284 362 L 1284 363 L 1283 363 L 1283 364 L 1282 364 L 1282 365 L 1281 365 L 1281 366 L 1280 366 L 1280 367 L 1279 367 L 1279 368 L 1278 368 L 1278 369 L 1277 369 L 1277 370 L 1276 370 L 1276 372 L 1275 372 L 1275 373 L 1274 373 L 1274 375 L 1273 375 L 1273 376 L 1272 376 L 1272 378 L 1271 378 L 1271 380 L 1270 380 L 1270 382 L 1269 382 L 1269 384 L 1268 384 L 1268 386 L 1267 386 L 1267 388 L 1266 388 L 1266 391 L 1265 391 L 1265 395 L 1264 395 L 1264 400 L 1263 400 L 1263 406 L 1262 406 L 1262 427 L 1263 427 L 1263 434 L 1264 434 L 1264 438 L 1265 438 L 1265 442 L 1266 442 L 1266 445 L 1267 445 L 1267 447 L 1268 447 L 1268 449 L 1269 449 L 1269 452 L 1270 452 L 1270 454 L 1271 454 L 1271 455 L 1272 455 L 1272 457 L 1273 457 L 1273 459 L 1274 459 L 1274 460 L 1275 460 L 1275 462 L 1276 462 L 1276 463 L 1277 463 L 1277 464 L 1278 464 L 1278 466 L 1279 466 L 1279 467 L 1280 467 L 1280 468 L 1281 468 L 1281 469 L 1282 469 L 1282 470 L 1283 470 L 1283 471 L 1285 471 L 1285 472 L 1286 472 L 1286 473 L 1287 473 L 1287 474 L 1288 474 L 1288 475 L 1290 475 L 1290 476 L 1292 476 L 1292 477 L 1293 477 L 1293 478 L 1295 478 L 1295 479 L 1297 479 L 1297 480 L 1300 480 L 1300 481 L 1302 481 L 1302 482 L 1306 482 L 1306 483 L 1311 483 L 1311 484 L 1328 484 L 1328 483 L 1333 483 L 1333 482 L 1337 482 L 1337 481 L 1340 481 L 1340 480 L 1342 480 L 1342 479 L 1345 479 L 1345 478 L 1347 478 L 1347 477 L 1348 477 L 1348 476 L 1350 476 L 1350 475 L 1351 475 L 1351 474 L 1353 474 L 1353 473 L 1354 473 L 1354 472 L 1355 472 L 1355 471 L 1357 471 L 1357 470 L 1358 470 L 1358 469 L 1359 469 L 1359 468 L 1360 468 L 1360 466 L 1361 466 L 1361 465 L 1362 465 L 1362 464 L 1363 464 L 1363 463 L 1364 463 L 1364 462 L 1365 462 L 1365 460 L 1366 460 L 1366 459 L 1367 459 L 1367 457 L 1368 457 L 1368 455 L 1369 455 L 1369 453 L 1370 453 L 1370 451 L 1371 451 L 1371 449 L 1372 449 L 1372 446 L 1373 446 L 1373 444 L 1374 444 L 1374 441 L 1375 441 L 1375 437 L 1376 437 L 1376 432 L 1377 432 L 1377 426 L 1378 426 L 1378 409 L 1377 409 L 1377 402 L 1376 402 L 1376 397 L 1375 397 L 1375 393 L 1374 393 L 1374 390 L 1373 390 L 1373 388 L 1372 388 L 1372 385 L 1371 385 L 1371 382 L 1370 382 L 1370 380 L 1369 380 L 1369 379 L 1368 379 L 1368 377 L 1367 377 L 1367 375 L 1366 375 L 1366 374 L 1365 374 L 1365 372 L 1364 372 L 1364 371 L 1363 371 L 1363 370 L 1362 370 L 1362 368 L 1361 368 L 1361 367 L 1360 367 L 1360 366 L 1359 366 L 1359 365 L 1358 365 L 1358 364 L 1357 364 L 1357 363 L 1356 363 L 1356 362 L 1355 362 L 1355 361 L 1353 361 L 1353 360 L 1352 360 L 1352 359 L 1351 359 L 1351 358 L 1349 358 L 1349 357 L 1347 357 L 1347 356 L 1346 356 L 1346 355 L 1344 355 L 1344 354 L 1341 354 L 1341 353 L 1339 353 L 1339 352 L 1335 352 L 1335 351 L 1331 351 L 1331 350 L 1322 350 L 1322 349 Z M 997 428 L 997 429 L 987 429 L 987 430 L 981 430 L 981 431 L 977 431 L 977 432 L 974 432 L 974 433 L 971 433 L 971 434 L 969 434 L 969 435 L 967 435 L 967 436 L 966 436 L 966 437 L 964 437 L 964 438 L 963 438 L 963 439 L 962 439 L 962 440 L 961 440 L 961 441 L 960 441 L 960 442 L 959 442 L 959 443 L 958 443 L 958 444 L 957 444 L 957 446 L 956 446 L 956 448 L 955 448 L 955 450 L 954 450 L 954 454 L 953 454 L 953 465 L 954 465 L 954 469 L 955 469 L 955 472 L 956 472 L 956 473 L 957 473 L 957 475 L 958 475 L 958 476 L 959 476 L 959 478 L 960 478 L 960 479 L 961 479 L 961 480 L 963 480 L 963 481 L 964 481 L 964 482 L 965 482 L 965 483 L 967 483 L 967 484 L 969 484 L 969 485 L 972 485 L 972 486 L 976 486 L 976 487 L 983 487 L 983 488 L 991 488 L 991 487 L 998 487 L 998 486 L 1002 486 L 1002 485 L 1005 485 L 1005 484 L 1008 484 L 1008 483 L 1010 483 L 1010 482 L 1012 482 L 1012 481 L 1014 481 L 1014 480 L 1016 480 L 1016 479 L 1017 479 L 1017 478 L 1019 478 L 1019 477 L 1020 477 L 1020 476 L 1021 476 L 1021 475 L 1022 475 L 1022 474 L 1024 474 L 1024 473 L 1025 473 L 1025 471 L 1026 471 L 1026 470 L 1027 470 L 1027 469 L 1028 469 L 1028 468 L 1029 468 L 1029 466 L 1030 466 L 1030 464 L 1031 464 L 1031 462 L 1032 462 L 1032 460 L 1033 460 L 1033 457 L 1034 457 L 1034 454 L 1035 454 L 1035 450 L 1036 450 L 1036 444 L 1037 444 L 1037 429 L 1027 429 L 1027 428 Z"/>
</svg>
