<svg xmlns="http://www.w3.org/2000/svg" viewBox="0 0 1600 1408" width="1600" height="1408">
  <path fill="#ffffff" fill-rule="evenodd" d="M 680 409 L 696 409 L 696 410 L 704 410 L 704 411 L 711 411 L 711 412 L 715 412 L 715 413 L 720 413 L 720 414 L 723 414 L 723 415 L 726 415 L 726 416 L 730 416 L 730 417 L 732 417 L 732 418 L 734 418 L 734 419 L 737 419 L 737 420 L 739 420 L 739 421 L 741 421 L 741 422 L 743 422 L 743 423 L 744 423 L 744 424 L 746 424 L 746 425 L 749 425 L 749 426 L 750 426 L 750 427 L 752 427 L 752 428 L 754 428 L 754 429 L 755 429 L 755 430 L 757 430 L 757 431 L 758 431 L 758 432 L 760 432 L 760 433 L 761 433 L 761 434 L 762 434 L 762 435 L 763 435 L 763 436 L 765 436 L 765 437 L 766 437 L 766 438 L 768 438 L 768 440 L 770 440 L 770 441 L 771 441 L 771 442 L 772 442 L 772 443 L 773 443 L 773 444 L 775 444 L 775 445 L 776 445 L 776 446 L 777 446 L 777 447 L 778 447 L 778 448 L 779 448 L 779 450 L 780 450 L 780 451 L 781 451 L 781 452 L 782 452 L 782 453 L 783 453 L 783 454 L 784 454 L 784 456 L 786 456 L 786 458 L 787 458 L 787 459 L 788 459 L 788 460 L 789 460 L 789 461 L 790 461 L 790 463 L 791 463 L 791 464 L 792 464 L 792 466 L 793 466 L 793 467 L 794 467 L 794 469 L 795 469 L 795 470 L 796 470 L 796 472 L 797 472 L 797 474 L 798 474 L 798 476 L 799 476 L 799 477 L 800 477 L 800 480 L 801 480 L 801 481 L 802 481 L 802 483 L 803 483 L 803 485 L 804 485 L 804 487 L 805 487 L 805 490 L 806 490 L 806 492 L 807 492 L 807 494 L 808 494 L 808 497 L 809 497 L 809 500 L 810 500 L 810 504 L 811 504 L 811 507 L 812 507 L 812 510 L 813 510 L 813 514 L 814 514 L 814 517 L 815 517 L 815 523 L 816 523 L 816 528 L 817 528 L 817 536 L 818 536 L 818 542 L 819 542 L 819 544 L 818 544 L 818 545 L 819 545 L 819 560 L 820 560 L 820 568 L 819 568 L 819 588 L 818 588 L 818 597 L 817 597 L 817 605 L 816 605 L 816 612 L 815 612 L 815 619 L 814 619 L 814 622 L 813 622 L 813 627 L 812 627 L 812 630 L 811 630 L 811 635 L 810 635 L 810 638 L 809 638 L 809 643 L 808 643 L 808 645 L 807 645 L 807 650 L 806 650 L 806 653 L 805 653 L 805 656 L 804 656 L 804 659 L 803 659 L 803 663 L 802 663 L 802 664 L 801 664 L 801 668 L 800 668 L 800 670 L 799 670 L 799 673 L 798 673 L 798 676 L 797 676 L 797 678 L 796 678 L 796 680 L 795 680 L 795 683 L 794 683 L 794 685 L 793 685 L 793 688 L 792 688 L 792 691 L 791 691 L 791 692 L 790 692 L 790 694 L 789 694 L 789 698 L 788 698 L 788 699 L 787 699 L 787 702 L 786 702 L 786 703 L 785 703 L 785 706 L 784 706 L 784 709 L 783 709 L 783 710 L 782 710 L 782 712 L 781 712 L 781 714 L 780 714 L 780 715 L 779 715 L 779 718 L 778 718 L 778 719 L 777 719 L 777 722 L 776 722 L 776 723 L 775 723 L 775 725 L 774 725 L 774 726 L 773 726 L 773 728 L 772 728 L 772 730 L 771 730 L 771 732 L 770 732 L 770 734 L 769 734 L 769 736 L 768 736 L 768 738 L 767 738 L 767 739 L 766 739 L 766 741 L 765 741 L 765 742 L 764 742 L 764 744 L 763 744 L 763 746 L 762 746 L 762 749 L 763 749 L 763 750 L 764 750 L 764 752 L 766 752 L 766 754 L 768 754 L 768 756 L 769 756 L 769 757 L 770 757 L 770 758 L 771 758 L 771 759 L 772 759 L 772 761 L 773 761 L 773 762 L 774 762 L 774 763 L 775 763 L 775 764 L 776 764 L 776 765 L 777 765 L 777 766 L 778 766 L 778 768 L 780 768 L 780 769 L 781 769 L 781 770 L 782 770 L 782 772 L 784 772 L 784 774 L 785 774 L 785 775 L 786 775 L 786 776 L 787 776 L 787 777 L 788 777 L 788 779 L 789 779 L 789 780 L 790 780 L 790 781 L 791 781 L 791 782 L 792 782 L 792 783 L 793 783 L 793 784 L 794 784 L 794 785 L 795 785 L 795 786 L 796 786 L 796 788 L 797 788 L 797 789 L 798 789 L 798 790 L 799 790 L 799 791 L 800 791 L 800 793 L 802 793 L 802 795 L 803 795 L 803 796 L 804 796 L 804 797 L 805 797 L 805 798 L 806 798 L 806 799 L 807 799 L 807 800 L 808 800 L 808 802 L 809 802 L 809 803 L 810 803 L 810 804 L 811 804 L 811 805 L 812 805 L 812 806 L 813 806 L 813 808 L 814 808 L 814 809 L 815 809 L 815 810 L 816 810 L 816 812 L 818 812 L 818 814 L 820 814 L 820 816 L 821 816 L 821 817 L 822 817 L 822 818 L 823 818 L 823 820 L 824 820 L 824 821 L 825 821 L 825 822 L 826 822 L 826 824 L 828 824 L 828 826 L 830 826 L 830 828 L 831 828 L 831 829 L 832 829 L 832 830 L 833 830 L 833 831 L 834 831 L 834 833 L 835 833 L 835 834 L 836 834 L 836 835 L 837 835 L 837 836 L 838 836 L 838 837 L 839 837 L 839 838 L 840 838 L 840 840 L 841 840 L 841 841 L 842 841 L 842 842 L 843 842 L 843 843 L 844 843 L 844 844 L 845 844 L 845 845 L 846 845 L 846 846 L 847 846 L 847 848 L 848 848 L 848 849 L 849 849 L 849 850 L 850 850 L 850 851 L 851 851 L 851 852 L 852 852 L 852 854 L 853 854 L 853 855 L 854 855 L 854 856 L 855 856 L 855 857 L 856 857 L 856 858 L 857 858 L 857 859 L 858 859 L 858 860 L 859 860 L 859 861 L 860 861 L 860 863 L 861 863 L 861 864 L 862 864 L 862 865 L 863 865 L 863 866 L 864 866 L 864 867 L 865 867 L 865 868 L 866 868 L 866 869 L 867 869 L 867 870 L 868 870 L 868 872 L 870 872 L 870 874 L 872 874 L 872 876 L 873 876 L 873 877 L 874 877 L 874 878 L 875 878 L 875 879 L 876 879 L 876 880 L 877 880 L 877 881 L 878 881 L 878 882 L 879 882 L 879 883 L 880 883 L 880 884 L 881 884 L 881 885 L 882 885 L 882 886 L 883 886 L 883 887 L 884 887 L 884 889 L 885 889 L 885 890 L 886 890 L 886 891 L 887 891 L 887 892 L 889 892 L 889 894 L 892 894 L 892 893 L 893 893 L 893 892 L 894 892 L 894 890 L 895 890 L 895 889 L 896 889 L 896 888 L 897 888 L 897 887 L 898 887 L 898 885 L 899 885 L 899 884 L 900 884 L 900 883 L 901 883 L 901 882 L 902 882 L 902 880 L 904 880 L 904 878 L 905 878 L 905 876 L 906 876 L 906 875 L 907 875 L 907 874 L 908 874 L 908 872 L 909 872 L 909 870 L 910 870 L 910 869 L 911 869 L 911 868 L 912 868 L 912 866 L 913 866 L 913 865 L 914 865 L 914 863 L 915 863 L 915 862 L 916 862 L 916 861 L 917 861 L 917 858 L 918 858 L 918 857 L 919 857 L 919 856 L 920 856 L 920 854 L 921 854 L 921 852 L 922 852 L 922 851 L 923 851 L 923 849 L 924 849 L 924 848 L 925 848 L 925 845 L 926 845 L 926 844 L 927 844 L 927 842 L 928 842 L 928 840 L 929 840 L 929 838 L 930 838 L 930 837 L 931 837 L 931 835 L 932 835 L 932 834 L 933 834 L 933 832 L 934 832 L 934 830 L 935 830 L 935 829 L 936 829 L 936 826 L 937 826 L 937 825 L 938 825 L 938 823 L 939 823 L 939 821 L 940 821 L 940 819 L 941 819 L 941 816 L 942 816 L 942 815 L 943 815 L 943 813 L 944 813 L 944 811 L 945 811 L 945 809 L 946 809 L 946 808 L 947 808 L 947 805 L 948 805 L 948 803 L 949 803 L 949 801 L 950 801 L 950 800 L 951 800 L 951 797 L 952 797 L 952 794 L 953 794 L 953 792 L 954 792 L 954 790 L 955 790 L 955 788 L 956 788 L 956 786 L 957 786 L 957 784 L 958 784 L 958 782 L 959 782 L 959 780 L 960 780 L 960 777 L 961 777 L 961 775 L 962 775 L 962 773 L 963 773 L 963 770 L 964 770 L 964 769 L 965 769 L 965 765 L 966 765 L 966 763 L 967 763 L 967 761 L 968 761 L 968 757 L 969 757 L 969 756 L 970 756 L 970 753 L 971 753 L 971 750 L 972 750 L 972 748 L 973 748 L 973 744 L 975 744 L 975 740 L 976 740 L 976 737 L 977 737 L 977 734 L 978 734 L 978 732 L 979 732 L 979 728 L 980 728 L 980 725 L 981 725 L 981 724 L 982 724 L 982 720 L 983 720 L 983 717 L 984 717 L 984 715 L 985 715 L 985 711 L 986 711 L 986 708 L 987 708 L 987 704 L 988 704 L 988 702 L 989 702 L 989 699 L 990 699 L 990 695 L 991 695 L 991 692 L 992 692 L 992 688 L 993 688 L 993 685 L 994 685 L 994 682 L 995 682 L 995 678 L 996 678 L 996 675 L 997 675 L 997 670 L 998 670 L 998 667 L 999 667 L 999 664 L 1000 664 L 1000 659 L 1001 659 L 1001 656 L 1002 656 L 1002 652 L 1003 652 L 1003 648 L 1004 648 L 1004 643 L 1005 643 L 1005 638 L 1006 638 L 1006 634 L 1007 634 L 1007 629 L 1008 629 L 1008 625 L 1009 625 L 1009 620 L 1010 620 L 1010 615 L 1011 615 L 1011 609 L 1012 609 L 1012 604 L 1013 604 L 1013 598 L 1014 598 L 1014 594 L 1015 594 L 1015 588 L 1016 588 L 1016 580 L 1017 580 L 1017 574 L 1018 574 L 1018 568 L 1019 568 L 1019 560 L 1020 560 L 1020 552 L 1021 552 L 1021 546 L 1022 546 L 1022 536 L 1023 536 L 1023 526 L 1024 526 L 1024 512 L 1025 512 L 1025 500 L 1026 500 L 1026 485 L 1027 485 L 1027 464 L 1028 464 L 1028 456 L 1029 456 L 1029 453 L 1030 453 L 1030 450 L 1031 450 L 1031 448 L 1032 448 L 1032 446 L 1033 446 L 1033 444 L 1034 444 L 1034 442 L 1035 442 L 1035 440 L 1036 440 L 1036 439 L 1037 439 L 1037 438 L 1038 438 L 1038 436 L 1040 436 L 1040 434 L 1042 434 L 1042 432 L 1044 432 L 1044 431 L 1045 431 L 1045 430 L 1046 430 L 1046 429 L 1047 429 L 1047 428 L 1049 428 L 1049 427 L 1051 427 L 1051 426 L 1053 426 L 1053 425 L 1055 425 L 1055 424 L 1057 424 L 1057 423 L 1061 423 L 1061 422 L 1064 422 L 1064 421 L 1080 421 L 1080 422 L 1085 422 L 1085 423 L 1088 423 L 1088 424 L 1090 424 L 1090 425 L 1093 425 L 1093 426 L 1094 426 L 1094 427 L 1096 427 L 1096 428 L 1098 428 L 1098 429 L 1099 429 L 1099 430 L 1101 430 L 1101 431 L 1102 431 L 1102 432 L 1104 432 L 1104 434 L 1105 434 L 1105 435 L 1106 435 L 1106 436 L 1107 436 L 1107 437 L 1108 437 L 1108 438 L 1109 438 L 1109 439 L 1110 439 L 1110 441 L 1111 441 L 1111 442 L 1112 442 L 1112 444 L 1113 444 L 1113 445 L 1114 445 L 1114 448 L 1115 448 L 1115 450 L 1116 450 L 1116 453 L 1117 453 L 1117 456 L 1118 456 L 1118 488 L 1117 488 L 1117 504 L 1116 504 L 1116 517 L 1115 517 L 1115 529 L 1114 529 L 1114 539 L 1113 539 L 1113 550 L 1112 550 L 1112 560 L 1111 560 L 1111 568 L 1110 568 L 1110 573 L 1109 573 L 1109 581 L 1108 581 L 1108 587 L 1107 587 L 1107 595 L 1106 595 L 1106 600 L 1105 600 L 1105 607 L 1104 607 L 1104 612 L 1103 612 L 1103 619 L 1102 619 L 1102 622 L 1101 622 L 1101 629 L 1100 629 L 1100 632 L 1099 632 L 1099 640 L 1098 640 L 1098 644 L 1097 644 L 1097 648 L 1096 648 L 1096 653 L 1095 653 L 1095 658 L 1094 658 L 1094 661 L 1093 661 L 1093 667 L 1092 667 L 1092 670 L 1091 670 L 1091 675 L 1090 675 L 1090 678 L 1089 678 L 1089 682 L 1088 682 L 1088 685 L 1087 685 L 1087 691 L 1086 691 L 1086 694 L 1085 694 L 1085 698 L 1084 698 L 1084 701 L 1083 701 L 1083 704 L 1082 704 L 1082 708 L 1081 708 L 1081 712 L 1080 712 L 1080 715 L 1079 715 L 1079 720 L 1078 720 L 1078 722 L 1077 722 L 1077 725 L 1076 725 L 1076 729 L 1075 729 L 1075 732 L 1074 732 L 1074 735 L 1073 735 L 1073 738 L 1072 738 L 1072 741 L 1071 741 L 1071 744 L 1070 744 L 1070 747 L 1069 747 L 1069 750 L 1068 750 L 1068 753 L 1067 753 L 1067 756 L 1066 756 L 1066 758 L 1065 758 L 1065 761 L 1064 761 L 1064 765 L 1063 765 L 1063 767 L 1062 767 L 1062 770 L 1061 770 L 1061 773 L 1060 773 L 1060 776 L 1059 776 L 1059 778 L 1058 778 L 1058 780 L 1057 780 L 1057 782 L 1056 782 L 1056 786 L 1055 786 L 1055 788 L 1054 788 L 1054 790 L 1053 790 L 1053 793 L 1052 793 L 1052 795 L 1051 795 L 1051 798 L 1050 798 L 1050 800 L 1049 800 L 1049 803 L 1048 803 L 1048 805 L 1047 805 L 1047 808 L 1046 808 L 1046 810 L 1045 810 L 1045 812 L 1044 812 L 1044 814 L 1043 814 L 1043 816 L 1042 816 L 1042 819 L 1041 819 L 1041 821 L 1040 821 L 1040 824 L 1039 824 L 1039 826 L 1038 826 L 1038 827 L 1037 827 L 1037 830 L 1036 830 L 1036 832 L 1035 832 L 1035 835 L 1034 835 L 1034 837 L 1033 837 L 1033 838 L 1032 838 L 1032 840 L 1031 840 L 1031 843 L 1030 843 L 1030 844 L 1029 844 L 1029 847 L 1028 847 L 1028 848 L 1027 848 L 1027 851 L 1026 851 L 1026 853 L 1025 853 L 1025 854 L 1024 854 L 1024 856 L 1023 856 L 1023 859 L 1022 859 L 1022 860 L 1021 860 L 1021 862 L 1020 862 L 1020 864 L 1019 864 L 1019 866 L 1018 866 L 1018 868 L 1017 868 L 1017 870 L 1016 870 L 1016 872 L 1015 872 L 1015 873 L 1014 873 L 1014 875 L 1013 875 L 1013 877 L 1012 877 L 1012 879 L 1011 879 L 1011 880 L 1010 880 L 1010 883 L 1009 883 L 1009 884 L 1008 884 L 1008 886 L 1007 886 L 1007 887 L 1006 887 L 1006 890 L 1005 890 L 1005 891 L 1004 891 L 1004 892 L 1003 892 L 1003 894 L 1002 894 L 1002 896 L 1001 896 L 1001 897 L 1000 897 L 1000 899 L 999 899 L 999 901 L 998 901 L 998 902 L 997 902 L 997 904 L 996 904 L 996 905 L 995 905 L 995 907 L 994 907 L 994 909 L 993 909 L 993 910 L 992 910 L 992 912 L 991 912 L 991 913 L 990 913 L 990 914 L 989 914 L 989 916 L 988 916 L 988 918 L 987 918 L 987 919 L 986 919 L 986 921 L 985 921 L 985 922 L 984 922 L 984 924 L 983 924 L 983 925 L 982 925 L 982 926 L 981 926 L 981 927 L 980 927 L 980 929 L 979 929 L 979 930 L 978 930 L 978 932 L 977 932 L 977 933 L 976 933 L 976 935 L 975 935 L 975 936 L 974 936 L 974 937 L 973 937 L 973 938 L 972 938 L 972 940 L 971 940 L 971 941 L 970 941 L 970 942 L 969 942 L 969 943 L 968 943 L 968 945 L 967 945 L 967 946 L 966 946 L 966 947 L 965 947 L 965 949 L 964 949 L 964 950 L 963 950 L 963 951 L 962 951 L 962 952 L 961 952 L 961 953 L 960 953 L 960 954 L 959 954 L 959 956 L 958 956 L 958 957 L 957 957 L 957 958 L 956 958 L 956 960 L 954 960 L 954 961 L 953 961 L 953 962 L 952 962 L 952 963 L 951 963 L 951 964 L 950 964 L 950 965 L 949 965 L 949 966 L 948 966 L 948 968 L 946 968 L 946 970 L 944 970 L 944 971 L 943 971 L 943 972 L 942 972 L 942 973 L 941 973 L 941 974 L 940 974 L 940 975 L 939 975 L 939 976 L 938 976 L 938 977 L 936 977 L 936 978 L 935 978 L 935 979 L 934 979 L 934 980 L 932 980 L 932 981 L 931 981 L 931 982 L 930 982 L 930 983 L 929 983 L 929 984 L 927 984 L 927 985 L 926 985 L 926 986 L 924 986 L 924 987 L 923 987 L 923 988 L 921 988 L 921 989 L 920 989 L 920 990 L 917 990 L 917 991 L 916 991 L 916 992 L 914 992 L 914 993 L 912 993 L 912 994 L 909 994 L 909 995 L 907 995 L 907 996 L 905 996 L 905 997 L 899 997 L 899 998 L 893 998 L 893 999 L 885 999 L 885 998 L 880 998 L 880 997 L 872 997 L 872 996 L 871 996 L 871 995 L 869 995 L 869 994 L 867 994 L 867 993 L 864 993 L 864 992 L 862 992 L 862 991 L 861 991 L 861 990 L 859 990 L 859 989 L 858 989 L 858 988 L 856 988 L 856 986 L 854 986 L 854 985 L 853 985 L 853 984 L 852 984 L 852 983 L 851 983 L 851 982 L 849 982 L 849 980 L 847 980 L 847 979 L 846 979 L 846 978 L 845 978 L 845 977 L 844 977 L 844 976 L 843 976 L 843 975 L 842 975 L 842 974 L 841 974 L 841 973 L 840 973 L 840 972 L 839 972 L 839 971 L 838 971 L 838 970 L 837 970 L 837 969 L 836 969 L 836 968 L 835 968 L 835 967 L 834 967 L 834 966 L 833 966 L 833 965 L 832 965 L 832 964 L 831 964 L 831 963 L 830 963 L 830 962 L 828 962 L 828 960 L 826 960 L 826 958 L 824 958 L 824 956 L 822 956 L 822 954 L 821 954 L 821 953 L 820 953 L 820 952 L 819 952 L 819 951 L 818 951 L 818 950 L 817 950 L 817 949 L 816 949 L 816 948 L 815 948 L 815 947 L 814 947 L 814 946 L 813 946 L 813 945 L 812 945 L 812 943 L 810 943 L 810 942 L 809 942 L 809 940 L 808 940 L 808 939 L 806 939 L 806 938 L 805 938 L 805 936 L 804 936 L 804 935 L 803 935 L 803 934 L 802 934 L 802 933 L 801 933 L 801 932 L 800 932 L 800 930 L 798 930 L 798 928 L 796 928 L 796 926 L 795 926 L 795 925 L 794 925 L 794 924 L 793 924 L 793 923 L 792 923 L 792 922 L 791 922 L 791 921 L 790 921 L 790 919 L 788 919 L 788 917 L 787 917 L 787 916 L 786 916 L 786 915 L 785 915 L 785 914 L 784 914 L 784 912 L 782 912 L 782 910 L 781 910 L 781 909 L 780 909 L 780 908 L 779 908 L 779 907 L 778 907 L 778 906 L 777 906 L 777 905 L 776 905 L 776 903 L 775 903 L 775 902 L 774 902 L 774 901 L 773 901 L 773 900 L 772 900 L 772 899 L 771 899 L 771 898 L 770 898 L 770 897 L 769 897 L 769 896 L 768 896 L 768 894 L 767 894 L 767 893 L 766 893 L 766 892 L 765 892 L 765 891 L 764 891 L 764 889 L 763 889 L 763 888 L 762 888 L 762 887 L 761 887 L 761 886 L 760 886 L 760 885 L 759 885 L 759 884 L 758 884 L 758 882 L 757 882 L 757 881 L 756 881 L 756 880 L 755 880 L 755 879 L 754 879 L 754 878 L 753 878 L 753 877 L 752 877 L 752 875 L 751 875 L 751 874 L 750 874 L 750 872 L 748 872 L 748 870 L 746 870 L 746 868 L 745 868 L 745 867 L 744 867 L 744 866 L 743 866 L 743 865 L 742 865 L 742 863 L 741 863 L 741 862 L 740 862 L 740 861 L 739 861 L 739 860 L 738 860 L 738 859 L 737 859 L 737 858 L 736 858 L 736 856 L 735 856 L 735 855 L 734 855 L 734 853 L 732 853 L 732 852 L 731 852 L 731 851 L 730 851 L 730 849 L 729 849 L 729 848 L 728 848 L 728 846 L 726 846 L 726 844 L 725 844 L 725 843 L 724 843 L 724 842 L 723 842 L 723 841 L 722 841 L 722 840 L 721 840 L 721 839 L 720 839 L 720 838 L 719 838 L 719 837 L 718 837 L 718 835 L 717 835 L 717 834 L 716 834 L 716 833 L 715 833 L 715 832 L 714 832 L 714 831 L 713 831 L 713 830 L 712 830 L 712 828 L 710 828 L 710 827 L 709 827 L 709 826 L 708 826 L 708 824 L 707 824 L 707 822 L 706 822 L 706 823 L 705 823 L 705 824 L 704 824 L 704 826 L 703 826 L 703 827 L 702 827 L 702 828 L 701 828 L 701 829 L 700 829 L 700 830 L 699 830 L 699 831 L 698 831 L 698 832 L 697 832 L 697 833 L 696 833 L 696 834 L 695 834 L 695 836 L 694 836 L 694 837 L 693 837 L 693 838 L 692 838 L 692 840 L 690 840 L 690 842 L 688 842 L 688 844 L 687 844 L 687 845 L 686 845 L 686 846 L 685 846 L 685 847 L 684 847 L 684 848 L 683 848 L 683 849 L 682 849 L 682 850 L 681 850 L 681 851 L 680 851 L 680 852 L 679 852 L 679 853 L 678 853 L 678 854 L 677 854 L 677 855 L 676 855 L 676 857 L 675 857 L 675 858 L 674 858 L 674 859 L 673 859 L 673 860 L 672 860 L 672 861 L 671 861 L 671 862 L 670 862 L 670 863 L 669 863 L 669 864 L 668 864 L 668 866 L 666 866 L 666 868 L 664 868 L 664 870 L 662 870 L 662 872 L 661 872 L 661 873 L 660 873 L 660 874 L 659 874 L 659 875 L 658 875 L 658 876 L 657 876 L 657 877 L 656 877 L 656 878 L 655 878 L 655 879 L 654 879 L 654 880 L 653 880 L 653 881 L 652 881 L 652 882 L 651 882 L 651 883 L 650 883 L 650 884 L 649 884 L 649 885 L 648 885 L 648 886 L 647 886 L 647 887 L 646 887 L 646 888 L 645 888 L 645 889 L 644 889 L 644 890 L 643 890 L 643 891 L 642 891 L 642 892 L 641 892 L 641 893 L 640 893 L 640 894 L 639 894 L 639 895 L 638 895 L 638 896 L 637 896 L 637 897 L 636 897 L 636 898 L 635 898 L 635 899 L 634 899 L 634 900 L 633 900 L 633 901 L 632 901 L 632 902 L 631 902 L 631 903 L 630 903 L 630 904 L 629 904 L 629 905 L 628 905 L 628 906 L 627 906 L 627 907 L 626 907 L 626 908 L 625 908 L 625 909 L 624 909 L 624 910 L 623 910 L 623 911 L 622 911 L 622 912 L 620 912 L 620 914 L 618 914 L 618 916 L 616 916 L 616 917 L 615 917 L 615 918 L 614 918 L 614 919 L 613 919 L 613 920 L 611 920 L 611 921 L 610 921 L 610 922 L 608 922 L 608 924 L 606 924 L 606 925 L 605 925 L 605 926 L 604 926 L 604 927 L 603 927 L 603 928 L 602 928 L 602 929 L 600 929 L 600 930 L 599 930 L 599 931 L 598 931 L 598 932 L 596 932 L 596 933 L 594 933 L 594 934 L 593 934 L 593 935 L 592 935 L 592 936 L 590 936 L 590 937 L 589 937 L 589 938 L 587 938 L 587 939 L 586 939 L 586 940 L 584 940 L 584 941 L 583 941 L 583 942 L 581 942 L 581 943 L 580 943 L 580 944 L 578 944 L 578 945 L 577 945 L 577 946 L 575 946 L 575 947 L 574 947 L 574 948 L 572 948 L 572 949 L 571 949 L 571 950 L 568 950 L 568 951 L 567 951 L 567 952 L 565 952 L 565 953 L 564 953 L 564 954 L 562 954 L 562 955 L 560 955 L 560 956 L 558 956 L 558 957 L 556 957 L 556 958 L 555 958 L 555 959 L 552 959 L 552 960 L 550 960 L 550 961 L 549 961 L 549 962 L 547 962 L 547 963 L 544 963 L 544 964 L 542 964 L 542 965 L 538 965 L 538 966 L 533 966 L 533 967 L 520 967 L 520 966 L 517 966 L 517 965 L 512 965 L 512 964 L 511 964 L 511 963 L 509 963 L 509 962 L 507 962 L 507 961 L 504 961 L 504 960 L 503 960 L 503 959 L 502 959 L 502 958 L 500 958 L 500 957 L 499 957 L 499 956 L 498 956 L 498 955 L 497 955 L 497 954 L 496 954 L 496 953 L 495 953 L 495 952 L 494 952 L 494 951 L 493 951 L 493 950 L 492 950 L 492 949 L 491 949 L 491 947 L 490 947 L 490 946 L 489 946 L 489 945 L 488 945 L 488 943 L 487 943 L 487 941 L 486 941 L 486 939 L 485 939 L 485 936 L 484 936 L 484 933 L 483 933 L 483 928 L 482 928 L 482 916 L 483 916 L 483 909 L 484 909 L 484 907 L 485 907 L 485 904 L 486 904 L 486 901 L 487 901 L 487 900 L 488 900 L 488 898 L 489 898 L 489 896 L 490 896 L 490 894 L 492 894 L 492 892 L 493 892 L 493 891 L 494 891 L 494 890 L 495 890 L 495 889 L 496 889 L 496 888 L 498 888 L 498 886 L 500 886 L 500 885 L 501 885 L 501 884 L 502 884 L 502 883 L 503 883 L 503 882 L 506 882 L 506 881 L 507 881 L 507 880 L 509 880 L 509 879 L 511 879 L 511 878 L 512 878 L 512 877 L 515 877 L 515 876 L 517 876 L 517 875 L 519 875 L 519 874 L 520 874 L 520 873 L 522 873 L 522 872 L 524 872 L 524 871 L 525 871 L 525 870 L 526 870 L 526 869 L 528 869 L 528 868 L 530 868 L 530 867 L 531 867 L 531 866 L 533 866 L 533 865 L 534 865 L 534 864 L 536 864 L 536 863 L 538 863 L 538 862 L 539 862 L 539 861 L 540 861 L 540 860 L 542 860 L 542 859 L 543 859 L 543 858 L 545 858 L 545 857 L 546 857 L 546 856 L 547 856 L 547 855 L 548 855 L 548 854 L 550 854 L 550 853 L 551 853 L 551 852 L 553 852 L 553 850 L 555 850 L 555 849 L 556 849 L 556 848 L 557 848 L 557 847 L 558 847 L 558 846 L 559 846 L 559 845 L 560 845 L 560 844 L 561 844 L 561 843 L 562 843 L 562 842 L 564 842 L 564 840 L 566 840 L 566 838 L 568 838 L 568 836 L 570 836 L 570 835 L 571 835 L 571 834 L 572 834 L 572 832 L 574 832 L 574 831 L 575 831 L 575 830 L 576 830 L 576 828 L 578 828 L 578 827 L 579 827 L 579 826 L 580 826 L 580 824 L 582 824 L 582 822 L 584 822 L 584 820 L 586 820 L 586 819 L 587 819 L 587 818 L 588 818 L 588 816 L 590 816 L 590 814 L 592 814 L 592 812 L 593 812 L 593 811 L 594 811 L 594 810 L 595 810 L 595 809 L 596 809 L 596 808 L 597 808 L 597 807 L 598 807 L 598 806 L 599 806 L 599 805 L 600 805 L 600 804 L 601 804 L 601 803 L 602 803 L 602 802 L 603 802 L 603 801 L 604 801 L 604 799 L 605 799 L 605 798 L 606 798 L 606 797 L 607 797 L 607 796 L 608 796 L 608 795 L 609 795 L 609 794 L 610 794 L 610 793 L 611 793 L 611 792 L 612 792 L 612 791 L 613 791 L 613 790 L 614 790 L 614 788 L 615 788 L 615 787 L 616 787 L 616 786 L 618 786 L 618 784 L 619 784 L 619 783 L 620 783 L 620 782 L 621 782 L 621 781 L 622 781 L 622 780 L 623 780 L 623 779 L 624 779 L 624 778 L 625 778 L 625 777 L 626 777 L 626 775 L 627 775 L 627 774 L 628 774 L 628 773 L 629 773 L 629 772 L 630 772 L 630 771 L 631 771 L 631 770 L 632 770 L 632 768 L 633 768 L 633 767 L 634 767 L 634 765 L 636 765 L 636 764 L 637 764 L 637 763 L 638 763 L 638 761 L 639 761 L 639 760 L 640 760 L 640 759 L 641 759 L 641 758 L 642 758 L 642 757 L 643 757 L 643 756 L 644 756 L 644 754 L 645 754 L 645 753 L 646 753 L 646 752 L 644 752 L 644 750 L 643 750 L 643 749 L 642 749 L 642 748 L 641 748 L 641 746 L 640 746 L 640 744 L 638 744 L 638 742 L 637 742 L 637 741 L 636 741 L 636 740 L 635 740 L 635 739 L 634 739 L 634 737 L 633 737 L 633 736 L 632 736 L 632 735 L 631 735 L 631 734 L 630 734 L 630 732 L 629 732 L 629 731 L 628 731 L 628 730 L 627 730 L 627 729 L 626 729 L 626 727 L 625 727 L 625 726 L 624 726 L 624 725 L 623 725 L 623 724 L 622 724 L 622 722 L 620 722 L 620 719 L 618 719 L 618 717 L 617 717 L 617 716 L 616 716 L 616 715 L 615 715 L 615 714 L 614 714 L 614 712 L 613 712 L 613 711 L 612 711 L 612 709 L 611 709 L 611 708 L 610 708 L 610 707 L 609 707 L 609 706 L 608 706 L 608 704 L 607 704 L 607 703 L 606 703 L 606 701 L 605 701 L 605 700 L 604 700 L 604 699 L 603 699 L 603 698 L 602 698 L 602 696 L 601 696 L 601 695 L 600 695 L 600 693 L 599 693 L 599 692 L 598 692 L 598 691 L 597 691 L 597 690 L 596 690 L 596 688 L 595 688 L 595 686 L 594 686 L 594 685 L 593 685 L 593 683 L 592 683 L 592 682 L 591 682 L 591 681 L 590 681 L 590 678 L 589 678 L 589 677 L 588 677 L 588 675 L 587 675 L 587 674 L 586 674 L 586 672 L 585 672 L 585 671 L 584 671 L 584 669 L 583 669 L 583 668 L 582 668 L 582 666 L 581 666 L 581 664 L 580 664 L 580 662 L 579 662 L 579 660 L 578 660 L 578 659 L 577 659 L 577 656 L 576 656 L 576 655 L 575 655 L 575 653 L 574 653 L 574 651 L 573 651 L 573 649 L 572 649 L 572 648 L 571 648 L 571 645 L 570 645 L 570 643 L 569 643 L 569 640 L 568 640 L 568 638 L 567 638 L 567 636 L 566 636 L 566 634 L 565 634 L 565 630 L 564 630 L 564 628 L 563 628 L 563 626 L 562 626 L 562 622 L 561 622 L 561 619 L 560 619 L 560 616 L 559 616 L 559 613 L 558 613 L 558 610 L 557 610 L 557 604 L 556 604 L 556 600 L 555 600 L 555 594 L 554 594 L 554 591 L 553 591 L 553 579 L 552 579 L 552 552 L 553 552 L 553 542 L 554 542 L 554 536 L 555 536 L 555 531 L 556 531 L 556 528 L 557 528 L 557 522 L 558 522 L 558 517 L 559 517 L 559 514 L 560 514 L 560 512 L 561 512 L 561 509 L 562 509 L 562 506 L 563 506 L 563 502 L 564 502 L 564 499 L 565 499 L 565 498 L 566 498 L 566 496 L 567 496 L 567 493 L 568 493 L 568 490 L 569 490 L 569 489 L 570 489 L 570 487 L 571 487 L 571 485 L 572 485 L 572 483 L 573 483 L 573 481 L 574 481 L 574 480 L 575 480 L 575 478 L 576 478 L 576 476 L 577 476 L 577 475 L 578 475 L 578 473 L 579 473 L 579 472 L 580 472 L 580 470 L 581 470 L 581 469 L 582 469 L 582 467 L 583 467 L 583 466 L 584 466 L 584 464 L 586 464 L 586 462 L 587 462 L 587 461 L 588 461 L 588 460 L 589 460 L 589 459 L 590 459 L 590 457 L 591 457 L 591 456 L 592 456 L 592 455 L 593 455 L 593 454 L 594 454 L 594 453 L 595 453 L 595 452 L 596 452 L 596 451 L 597 451 L 597 450 L 598 450 L 598 449 L 599 449 L 599 448 L 600 448 L 600 447 L 601 447 L 601 446 L 602 446 L 602 445 L 603 445 L 603 444 L 604 444 L 604 443 L 605 443 L 605 442 L 607 442 L 607 441 L 608 441 L 608 440 L 609 440 L 609 439 L 610 439 L 610 438 L 612 438 L 612 437 L 613 437 L 613 436 L 614 436 L 614 435 L 615 435 L 615 434 L 616 434 L 616 433 L 619 433 L 619 432 L 620 432 L 620 431 L 621 431 L 621 430 L 622 430 L 622 429 L 624 429 L 624 428 L 626 428 L 626 427 L 628 427 L 628 426 L 629 426 L 629 425 L 631 425 L 631 424 L 633 424 L 633 423 L 635 423 L 635 422 L 637 422 L 637 421 L 640 421 L 640 420 L 641 420 L 641 419 L 644 419 L 644 418 L 646 418 L 646 417 L 649 417 L 649 416 L 652 416 L 652 415 L 656 415 L 656 414 L 658 414 L 658 413 L 662 413 L 662 412 L 668 412 L 668 411 L 675 411 L 675 410 L 680 410 Z M 688 500 L 688 501 L 680 501 L 680 502 L 678 502 L 678 503 L 677 503 L 677 504 L 675 504 L 675 505 L 672 505 L 672 506 L 671 506 L 671 507 L 670 507 L 670 508 L 668 508 L 668 509 L 667 509 L 667 510 L 666 510 L 666 511 L 665 511 L 665 512 L 664 512 L 664 513 L 662 513 L 662 514 L 661 514 L 661 515 L 660 515 L 660 517 L 659 517 L 659 518 L 658 518 L 658 519 L 657 519 L 657 520 L 656 520 L 656 522 L 655 522 L 655 523 L 654 523 L 654 525 L 653 525 L 653 526 L 652 526 L 652 528 L 651 528 L 651 531 L 650 531 L 650 533 L 649 533 L 649 535 L 648 535 L 648 538 L 647 538 L 647 541 L 646 541 L 646 545 L 645 545 L 645 551 L 644 551 L 644 556 L 643 556 L 643 574 L 644 574 L 644 580 L 645 580 L 645 587 L 646 587 L 646 589 L 647 589 L 647 593 L 648 593 L 648 596 L 649 596 L 649 598 L 650 598 L 650 601 L 651 601 L 651 603 L 652 603 L 652 605 L 653 605 L 653 608 L 654 608 L 654 610 L 655 610 L 655 611 L 656 611 L 656 614 L 657 614 L 657 615 L 658 615 L 658 617 L 659 617 L 659 619 L 660 619 L 660 621 L 661 621 L 661 622 L 662 622 L 662 624 L 663 624 L 663 625 L 664 625 L 664 627 L 665 627 L 665 628 L 666 628 L 666 630 L 667 630 L 667 632 L 668 632 L 668 633 L 669 633 L 669 635 L 670 635 L 670 637 L 671 637 L 671 638 L 672 638 L 672 640 L 674 640 L 674 642 L 675 642 L 675 643 L 676 643 L 676 645 L 677 645 L 677 646 L 678 646 L 678 647 L 679 647 L 679 648 L 680 648 L 680 650 L 681 650 L 681 651 L 682 651 L 682 653 L 683 653 L 683 654 L 684 654 L 684 656 L 686 656 L 686 658 L 687 658 L 687 659 L 688 659 L 688 661 L 690 661 L 690 664 L 692 664 L 692 665 L 693 665 L 693 666 L 694 666 L 694 668 L 695 668 L 695 669 L 696 669 L 696 671 L 698 671 L 698 672 L 700 672 L 700 670 L 701 670 L 701 668 L 702 668 L 702 666 L 703 666 L 703 664 L 704 664 L 704 662 L 705 662 L 705 660 L 706 660 L 706 658 L 707 658 L 707 655 L 708 655 L 708 653 L 709 653 L 709 651 L 710 651 L 710 649 L 711 649 L 711 646 L 712 646 L 712 643 L 713 643 L 713 641 L 714 641 L 714 638 L 715 638 L 715 635 L 716 635 L 716 632 L 717 632 L 717 630 L 718 630 L 718 627 L 719 627 L 719 624 L 720 624 L 720 620 L 721 620 L 721 616 L 722 616 L 722 612 L 723 612 L 723 608 L 724 608 L 724 604 L 725 604 L 725 598 L 726 598 L 726 592 L 727 592 L 727 584 L 728 584 L 728 566 L 729 566 L 729 562 L 728 562 L 728 546 L 727 546 L 727 540 L 726 540 L 726 536 L 725 536 L 725 533 L 724 533 L 724 530 L 723 530 L 723 527 L 722 527 L 722 524 L 721 524 L 721 523 L 720 523 L 720 520 L 719 520 L 719 519 L 718 519 L 718 518 L 717 518 L 717 516 L 716 516 L 716 514 L 714 514 L 714 512 L 712 512 L 712 510 L 711 510 L 711 509 L 710 509 L 710 508 L 708 508 L 708 507 L 707 507 L 707 506 L 705 506 L 705 505 L 704 505 L 704 504 L 702 504 L 702 503 L 699 503 L 699 502 L 698 502 L 698 501 L 693 501 L 693 500 Z"/>
</svg>
